<svg width="24" height="24" viewBox="0 0 24 24" fill="none" xmlns="http://www.w3.org/2000/svg">
<rect width="24" height="24" rx="4" fill="url(#paint0_linear_264_11596)"/>
<path d="M11.5312 4.5C9.66344 4.5 8.12431 5.93218 7.95337 7.75562C7.03399 8.07718 6.375 8.95937 6.375 9.96875C6.375 11.2613 7.42625 12.3125 8.71875 12.3125H15.125C16.6759 12.3125 17.9375 11.0506 17.9375 9.5C17.9375 7.94938 16.6759 6.6875 15.125 6.6875C15.0312 6.6875 14.9374 6.69246 14.8442 6.70215C14.2946 5.37996 13.0072 4.5 11.5312 4.5ZM11.5312 5.75C12.63 5.75 13.569 6.49791 13.814 7.56885C13.8533 7.74104 13.9635 7.88909 14.1179 7.97534C14.2726 8.06159 14.4558 8.07892 14.6233 8.02173C14.788 7.96579 14.9569 7.9375 15.125 7.9375C15.9866 7.9375 16.6875 8.63844 16.6875 9.5C16.6875 10.3616 15.9866 11.0625 15.125 11.0625H8.71875C8.11562 11.0625 7.625 10.5719 7.625 9.96875C7.625 9.40625 8.06354 8.92801 8.62354 8.87988C8.96041 8.85113 9.21389 8.56003 9.19482 8.22253C9.1067 6.90316 10.1772 5.75 11.5312 5.75ZM7.625 13.25C6.59094 13.25 5.75 14.0909 5.75 15.125V16.6875C5.75 17.7216 6.59094 18.5625 7.625 18.5625H16.375C17.4091 18.5625 18.25 17.7216 18.25 16.6875V15.125C18.25 14.0909 17.4091 13.25 16.375 13.25H7.625ZM7.625 14.5H16.375C16.7197 14.5 17 14.7803 17 15.125V16.6875C17 17.0322 16.7197 17.3125 16.375 17.3125H7.625C7.28031 17.3125 7 17.0322 7 16.6875V15.125C7 14.7803 7.28031 14.5 7.625 14.5ZM15.125 15.2812C14.7797 15.2812 14.5 15.5609 14.5 15.9062C14.5 16.2516 14.7797 16.5312 15.125 16.5312C15.4703 16.5312 15.75 16.2516 15.75 15.9062C15.75 15.5609 15.4703 15.2812 15.125 15.2812ZM8.71875 15.4375C8.46 15.4375 8.25 15.6475 8.25 15.9062C8.25 16.165 8.46 16.375 8.71875 16.375H13.0938C13.3525 16.375 13.5625 16.165 13.5625 15.9062C13.5625 15.6475 13.3525 15.4375 13.0938 15.4375H8.71875Z" fill="white"/>
<defs>
<linearGradient id="paint0_linear_264_11596" x1="12" y1="0" x2="12" y2="24" gradientUnits="userSpaceOnUse">
<stop stop-color="#FDC157"/>
<stop offset="1" stop-color="#FBA822"/>
</linearGradient>
</defs>
</svg>
