<svg width="24" height="24" viewBox="0 0 24 24" fill="none" xmlns="http://www.w3.org/2000/svg">
<rect width="24" height="24" rx="4" fill="url(#paint0_linear_264_11632)"/>
<path d="M8.94114 4.00085C8.83955 3.99476 8.73718 4.02153 8.64684 4.081L4.23369 6.97623C4.09501 7.06666 4.0086 7.2229 4.0006 7.39333C3.9926 7.56376 4.06528 7.72646 4.19463 7.83081L6.73261 9.87418L4.19463 11.9175C4.06528 12.0219 3.9926 12.1846 4.0006 12.355C4.0086 12.5254 4.09501 12.6803 4.23369 12.7708L6.81335 14.4636V16.6741C6.81335 16.8612 6.90932 17.034 7.06467 17.1265L11.7617 19.9307C11.839 19.9766 11.9251 20 12.0104 20C12.0964 20 12.1818 19.9773 12.2591 19.9307L16.9379 17.1265C17.0926 17.034 17.188 16.8612 17.188 16.6741V14.4622L19.7663 12.7708C19.905 12.6803 19.9914 12.5241 19.9994 12.3537C20.0074 12.1839 19.9347 12.0198 19.8054 11.9162L17.2674 9.87282L19.8054 7.83217C19.9347 7.72852 20.0074 7.56511 19.9994 7.39469C19.9914 7.22426 19.905 7.06802 19.7663 6.97759L15.3532 4.081C15.1725 3.96205 14.939 3.97651 14.7737 4.11633L12 6.44365L9.22632 4.11497C9.14298 4.04506 9.04273 4.00693 8.94114 4.00085ZM8.87603 5.16247L11.1249 7.0496L7.58815 9.24378L5.37181 7.46126L8.87603 5.16247ZM15.1227 5.16247L18.6282 7.46126L16.4131 9.24378L12.8738 7.04824L15.1227 5.16247ZM12.0013 7.72076L15.4704 9.87418L12 12.0276L8.52964 9.87418L12.0013 7.72076ZM7.58685 10.5032L11.1249 12.6988L8.87603 14.5859L5.37181 12.2857L7.58685 10.5032ZM16.4118 10.5032L18.6282 12.2857L15.1227 14.5859L12.8738 12.6988L16.4118 10.5032ZM12 13.3047L14.7724 15.632C14.9391 15.7718 15.1725 15.7842 15.3532 15.666L16.1879 15.1185V16.3725L12.0091 18.8778L7.81343 16.3711V15.1198L8.64684 15.6673C8.72818 15.7209 8.82048 15.7475 8.91249 15.7475C9.02383 15.7475 9.13498 15.7085 9.22632 15.632L12 13.3047Z" fill="white"/>
<defs>
<linearGradient id="paint0_linear_264_11632" x1="12" y1="0" x2="12" y2="24" gradientUnits="userSpaceOnUse">
<stop stop-color="#FDC157"/>
<stop offset="1" stop-color="#FBA822"/>
</linearGradient>
</defs>
</svg>
