<svg width="24" height="24" viewBox="0 0 24 24" fill="none" xmlns="http://www.w3.org/2000/svg">
<rect width="24" height="24" rx="4" fill="url(#paint0_linear_264_11620)"/>
<path d="M9.76295 5C9.75049 5 9.73891 5.00341 9.72659 5.00421C9.70774 5.0054 9.6901 5.00954 9.67131 5.01262C9.61365 5.02205 9.55812 5.03745 9.50695 5.0631C9.50174 5.06572 9.49611 5.06591 9.49095 5.06871L9.48804 5.07151C9.43142 5.10252 9.38228 5.14499 9.33968 5.19351C9.32805 5.20678 9.31783 5.22 9.30768 5.23417C9.29732 5.24856 9.28462 5.26076 9.27568 5.27624L4.06255 14.2506C4.05212 14.2685 4.05174 14.2882 4.04364 14.3067C4.02924 14.3395 4.01761 14.3713 4.01019 14.4062C4.00235 14.4428 3.99985 14.4775 4.00001 14.5142C4.00004 14.5456 4.00141 14.5754 4.00728 14.6068C4.01451 14.6455 4.02642 14.6812 4.04219 14.7175C4.04976 14.735 4.04998 14.7538 4.05964 14.7708L6.29384 18.7196C6.30416 18.7379 6.31939 18.7518 6.33166 18.7686C6.34222 18.7831 6.35156 18.7972 6.36366 18.8107C6.40568 18.8577 6.45378 18.8982 6.50911 18.9285C6.51192 18.93 6.51354 18.9326 6.51639 18.9341C6.5238 18.938 6.53214 18.9375 6.53966 18.9411C6.59026 18.9651 6.64449 18.9804 6.70111 18.9888C6.7174 18.9912 6.7328 18.9948 6.74911 18.9958C6.76097 18.9965 6.77204 19 6.78402 19H17.2103C17.2635 19 17.3147 18.9915 17.3645 18.9776H17.3674C17.3705 18.9767 17.373 18.9743 17.3761 18.9734C17.4323 18.9563 17.484 18.929 17.5317 18.8962C17.5469 18.8858 17.5612 18.8759 17.5754 18.864C17.6244 18.8227 17.6684 18.7764 17.7005 18.7196L19.9347 14.7708C19.9504 14.7431 19.9593 14.7133 19.9696 14.6839C19.9738 14.6719 19.9808 14.6611 19.9841 14.6488C19.9896 14.6286 19.9898 14.6077 19.9928 14.5871C19.9949 14.5733 19.9978 14.5603 19.9987 14.5465C20.0003 14.5216 20.0006 14.497 19.9987 14.4722C19.9975 14.4578 19.9937 14.4445 19.9914 14.4301C19.9876 14.407 19.9866 14.384 19.9797 14.3614C19.9696 14.328 19.9531 14.296 19.9361 14.2646C19.9337 14.2601 19.9343 14.255 19.9317 14.2506L19.9245 14.238L14.7186 5.27624C14.6203 5.10609 14.4332 5 14.2313 5H9.76295ZM10.7157 6.07692H13.9041L18.4917 13.9744H15.3033L10.7157 6.07692ZM9.76295 6.63922L11.3571 9.38341L8.53094 14.2506V14.252L8.52803 14.2548L6.78402 17.3369L5.18838 14.5156L9.76295 6.63922ZM11.9971 10.487L14.0233 13.9744H9.97095L11.9971 10.487ZM9.34986 15.0513H18.5034L16.8786 17.9231H7.72512L9.34986 15.0513Z" fill="white" stroke="white" stroke-width="0.2"/>
<defs>
<linearGradient id="paint0_linear_264_11620" x1="12" y1="0" x2="12" y2="24" gradientUnits="userSpaceOnUse">
<stop stop-color="#FDC157"/>
<stop offset="1" stop-color="#FBA822"/>
</linearGradient>
</defs>
</svg>
