<svg width="108" height="108" viewBox="0 0 108 108" fill="none" xmlns="http://www.w3.org/2000/svg">
<rect width="108" height="108" rx="54" fill="url(#paint0_linear_1620_10042)"/>
<path d="M49.631 32.4915C37.4941 32.4915 27.6533 42.3615 27.6533 54.5377C27.6533 63.9824 33.5749 72.039 41.8961 75.1775C46.757 72.5149 51.867 69.229 56.9392 65.4885C54.0372 68.8557 49.5863 72.5485 44.1726 75.8975C45.9175 76.3453 47.7463 76.5839 49.631 76.5839C61.768 76.5839 71.6087 66.7138 71.6087 54.5377C71.6087 42.3615 61.768 32.4915 49.631 32.4915Z" fill="white"/>
<path d="M85.1838 28.6737C82.2496 24.7886 71.7722 27.4708 59.0938 34.6376C59.7122 34.9337 60.3153 35.2594 60.9002 35.6117C69.3222 31.4332 75.9713 30.1517 78.0226 32.8691C81.301 37.2104 71.6071 50.1164 56.3709 61.696C41.1333 73.2756 26.1237 79.1426 22.8453 74.7999C20.9704 72.3184 23.3379 67.0367 28.5542 60.8047C28.3499 60.1142 28.1792 59.4082 28.0435 58.6909C18.8743 68.2831 14.2289 76.8323 16.9937 80.4929C21.0613 85.8799 39.6249 78.6458 58.4543 64.3362C77.2852 50.0266 89.2514 34.0593 85.1838 28.6737Z" fill="white"/>
<path d="M76.2557 65.5193C76.2585 69.2935 79.3074 72.352 83.0699 72.3548C79.3074 72.3576 76.2585 75.416 76.2557 79.1903C76.2529 75.416 73.2039 72.3576 69.4414 72.3548C73.2039 72.352 76.2529 69.2935 76.2557 65.5193Z" fill="white"/>
<path d="M31.3367 23.8215C31.3381 26.4771 33.4832 28.6288 36.1305 28.6302C33.4832 28.6316 31.3381 30.7833 31.3367 33.4389C31.3353 30.7833 29.1903 28.6316 26.543 28.6302C29.1903 28.6288 31.3353 26.4771 31.3367 23.8215Z" fill="white"/>
<path d="M72.9472 75.2773C67.3755 80.9674 59.6196 84.4975 51.0395 84.4975C45.2383 84.4975 39.8135 82.8833 35.1848 80.079C34.3411 80.4467 33.5099 80.792 32.6956 81.1092C32.585 81.1527 32.4773 81.192 32.3682 81.2341C38.4044 86.1032 46.0722 89.0184 54.4214 89.0184C62.7706 89.0184 70.1642 86.2084 76.1487 81.4952C75.8073 79.06 74.6431 76.89 72.9472 75.2759V75.2773Z" fill="white"/>
<path d="M78.2676 67.9491C79.7508 70.0025 81.9476 71.503 84.4942 72.0854C87.7586 66.7265 89.6405 60.4286 89.6405 53.69C89.6405 47.8145 88.2091 42.2746 85.6793 37.3999C84.7068 39.3986 83.3216 41.6051 81.525 44.0024C81.22 44.4094 80.9037 44.8207 80.5791 45.2333C81.3417 47.9212 81.7517 50.7579 81.7517 53.69C81.7517 58.8355 80.4924 63.6864 78.269 67.9491H78.2676Z" fill="white"/>
<path d="M76.3896 81.3013C79.4022 78.8872 82.0118 75.9888 84.098 72.7212C80.1088 73.7977 77.0515 77.1481 76.3896 81.3013Z" fill="white"/>
<path d="M29.6385 31.5959C29.2089 31.0541 28.7094 30.5699 28.1525 30.1572C22.5863 36.406 19.2002 44.6507 19.2002 53.6898C19.2002 57.5553 19.8215 61.2734 20.9646 64.7543C21.2753 64.3459 21.5957 63.936 21.9259 63.5234C20.8891 60.4355 20.328 57.1286 20.328 53.6898C20.328 45.0227 23.8974 37.1934 29.6399 31.5959H29.6385Z" fill="white"/>
<path d="M54.4199 18.3601C46.366 18.3601 38.9459 21.0732 33.0117 25.6363C33.563 26.3381 34.2304 26.9431 34.986 27.4217C39.6567 24.5429 45.1542 22.8825 51.038 22.8825C57.5668 22.8825 63.6185 24.9275 68.5941 28.4112C68.8922 28.2905 69.1874 28.1712 69.4813 28.0575C71.9789 27.0848 74.24 26.3886 76.2535 25.969C70.2522 21.2052 62.6684 18.3601 54.4199 18.3601Z" fill="white"/>
<defs>
<linearGradient id="paint0_linear_1620_10042" x1="0" y1="0" x2="108" y2="108" gradientUnits="userSpaceOnUse">
<stop stop-color="#FF8A48"/>
<stop offset="1" stop-color="#FF4667"/>
</linearGradient>
</defs>
</svg>
