<?xml version="1.0" encoding="UTF-8"?>
<svg width="108px" height="108px" viewBox="0 0 108 108" version="1.1" xmlns="http://www.w3.org/2000/svg" xmlns:xlink="http://www.w3.org/1999/xlink">
    <!-- Generator: Sketch 64 (93537) - https://sketch.com -->
    <title>Terminus_yuan</title>
    <desc>Created with Sketch.</desc>
    <defs>
        <linearGradient x1="50%" y1="0%" x2="50%" y2="100%" id="linearGradient-1">
            <stop stop-color="#FF621E" offset="0%"></stop>
            <stop stop-color="#FFE860" offset="100%"></stop>
        </linearGradient>
    </defs>
    <g id="Terminus_yuan" stroke="none" stroke-width="1" fill="none" fill-rule="evenodd">
        <g id="编组-3">
            <g id="编组-2">
                <g id="编组">
                    <rect id="矩形" fill="url(#linearGradient-1)" x="0" y="0" width="107.448005" height="107.448005" rx="53.7240024"></rect>
                    <g id="编组-4" transform="translate(25.518901, 30.891301)" fill="#FFFFFF" fill-rule="nonzero">
                        <path d="M0.0109827205,9.37825426 C0.0109827205,6.24817893 0.0109827205,3.17891533 0.0109827205,0.00979032 C0.351447055,0.00979032 0.644522984,0.00979032 0.937598914,0.00979032 C7.32181364,0.00979032 13.7044013,0.0211798079 20.088616,-1.08745897e-13 C21.1132632,-0.0034296213 21.9137815,0.314255737 22.6242008,1.06067396 C23.9960239,2.50286787 25.4252013,3.89258877 26.8379045,5.29552962 C27.9133976,6.36288734 29.034652,6.35475199 30.1150263,5.27925892 C31.6031849,3.79781196 33.0453788,2.26551907 34.5939424,0.849561668 C35.0718941,0.41249007 35.8299052,0.0522975159 36.4632421,0.0457892371 C43.147041,-0.0099379001 49.83084,0.0114173897 56.5146389,0.0146715291 C56.621212,0.0146715291 56.7259546,0.040908028 56.9043221,0.0636870038 C56.9043221,3.15756004 56.9043221,6.24167065 56.9043221,9.37662719 C37.9514007,9.37825426 19.0310207,9.37825426 0.0109827205,9.37825426 Z" id="路径"></path>
                        <path d="M8.09271788e-14,24.6304056 C8.09271788e-14,21.4448065 8.09271788e-14,18.3722888 8.09271788e-14,15.1964521 C0.437071598,15.1964521 0.836517209,15.1964521 1.23758989,15.1964521 C3.44755731,15.1964521 5.65752473,15.2112991 7.86586507,15.1881237 C8.65479049,15.1801814 9.28344955,15.4289197 9.83990739,15.987208 C14.8081647,20.9701089 19.7845574,25.9481287 24.7709159,30.9131319 C25.3536102,31.4941991 25.6171955,32.1490947 25.6123143,32.9577483 C25.5992977,35.3312363 25.5893319,42.4006507 25.6206909,44.772715 C25.628585,45.386527 25.4323197,45.5697757 24.8248125,45.5632674 C22.2056371,45.5354039 19.586665,45.5337768 16.9691167,45.5650432 C16.3485929,45.5714028 16.1816149,45.3651717 16.1848691,44.7643762 C16.2078514,40.6179925 16.1964619,31.7758856 16.1948349,27.6292985 C16.1948349,27.3297142 16.1964619,27.028503 16.1637172,26.7307492 C16.0065015,25.3326896 15.2436092,24.6352868 13.8390413,24.6320327 C9.55679726,24.6238973 5.27272274,24.6287785 0.990478679,24.6287785 C0.69414861,24.6304056 0.397818541,24.6304056 8.09271788e-14,24.6304056 Z" id="路径"></path>
                        <path d="M56.9474395,24.6304056 C56.9474395,21.4448065 56.9474395,18.3722888 56.9474395,15.1964521 C56.5103679,15.1964521 56.1109222,15.1964521 55.7100529,15.1964521 C53.5000855,15.1964521 51.2901181,15.2112991 49.0817778,15.1881237 C48.2928523,15.1801814 47.6641933,15.4289197 47.1075321,15.987208 C42.1392747,20.9701089 37.1628821,25.9481287 32.176727,30.9131319 C31.5938293,31.4941991 31.3304474,32.1490947 31.3353286,32.9577483 C31.3483451,35.3312363 31.3581075,42.4006507 31.3269403,44.772715 C31.3188545,45.386527 31.5153231,45.5697757 32.1226269,45.5632674 C34.7418024,45.5354039 37.3609778,45.5337768 39.9785262,45.5650432 C40.5990499,45.5714028 40.7660279,45.3651717 40.7625704,44.7643762 C40.7397914,40.6179925 40.7511809,31.7758856 40.752808,27.6292985 C40.752808,27.3297142 40.7511809,27.028503 40.7839257,26.7307492 C40.9411413,25.3326896 41.7038302,24.6352868 43.1083981,24.6320327 C47.3908456,24.6238973 51.6747167,24.6287785 55.9571642,24.6287785 C56.2534942,24.6304056 56.5498243,24.6304056 56.9474395,24.6304056 Z" id="路径"></path>
                    </g>
                </g>
            </g>
        </g>
    </g>
</svg>