<svg width="24" height="24" viewBox="0 0 24 24" fill="none" xmlns="http://www.w3.org/2000/svg">
<rect width="24" height="24" rx="4" fill="url(#paint0_linear_264_11608)"/>
<path d="M11.9999 5.33325C15.1774 5.33325 17.8308 7.55742 18.4983 10.5333C18.5658 10.8324 18.3091 11.1058 18.0083 11.0449L15.1074 10.4566C14.8174 10.3974 14.6791 10.0633 14.8433 9.81742L15.6558 8.59825C14.7441 7.61742 13.4458 6.99992 11.9999 6.99992C9.82744 6.99992 7.99077 8.39075 7.3041 10.3274C7.16494 10.7191 6.76327 10.9491 6.35577 10.8666C5.8616 10.7666 5.5566 10.2499 5.72494 9.77492C6.6391 7.18825 9.0991 5.33325 11.9999 5.33325ZM11.9999 18.6666C8.82244 18.6666 6.1691 16.4424 5.5016 13.4666C5.4341 13.1674 5.69077 12.8941 5.9916 12.9549L8.89244 13.5433C9.18244 13.6024 9.32077 13.9366 9.1566 14.1824L8.3441 15.4016C9.25577 16.3824 10.5541 16.9999 11.9999 16.9999C14.1724 16.9999 16.0091 15.6091 16.6958 13.6724C16.8349 13.2808 17.2366 13.0508 17.6441 13.1333C18.1383 13.2333 18.4433 13.7499 18.2749 14.2249C17.3608 16.8116 14.9008 18.6666 11.9999 18.6666Z" fill="white"/>
<defs>
<linearGradient id="paint0_linear_264_11608" x1="12" y1="0" x2="12" y2="24" gradientUnits="userSpaceOnUse">
<stop stop-color="#FDC157"/>
<stop offset="1" stop-color="#FBA822"/>
</linearGradient>
</defs>
</svg>
