<svg width="20" height="20" viewBox="0 0 20 20" fill="none" xmlns="http://www.w3.org/2000/svg">
<mask id="mask0_423_75" style="mask-type:alpha" maskUnits="userSpaceOnUse" x="0" y="0" width="20" height="20">
<rect width="20" height="20" fill="#D9D9D9"/>
</mask>
<g mask="url(#mask0_423_75)">
<path d="M7.52882 9.99998L13.5561 16.0272C13.7078 16.1789 13.785 16.367 13.7876 16.5913C13.7903 16.8157 13.7158 17.0037 13.5641 17.1554C13.4124 17.3071 13.2244 17.383 13 17.383C12.7756 17.383 12.5876 17.3071 12.4359 17.1554L6.23078 10.9423C6.09402 10.8055 5.99626 10.6576 5.93751 10.4984C5.87875 10.3392 5.84937 10.173 5.84937 9.99998C5.84937 9.82691 5.87875 9.66078 5.93751 9.50158C5.99626 9.3424 6.09402 9.19444 6.23078 9.05769L12.4359 2.85256C12.5876 2.70086 12.7743 2.62366 12.996 2.62098C13.2177 2.61831 13.4044 2.69283 13.5561 2.84454C13.7078 2.99625 13.7836 3.18428 13.7836 3.40863C13.7836 3.63299 13.7078 3.82102 13.5561 3.97273L7.52882 9.99998Z" fill="#5C5C5C"/>
</g>
</svg>
