<svg xmlns="http://www.w3.org/2000/svg" width="256" height="256"><path fill-opacity=".016" d="M0 128.004v128.004l128.25-.254 128.25-.254.254-127.75L257.008 0H0v128.004m.485.496c0 70.4.119 99.053.265 63.672.146-35.38.146-92.98 0-128C.604 29.153.485 58.1.485 128.5" fill="#1976D2" fill-rule="evenodd"/><path fill-opacity=".147" d="M44 1.594C22.789 7.344 7.059 23.227 1.547 44.46c-2.301 8.864-2.324 158.078-.025 167.08 4.83 18.92 19.074 34.661 37.62 41.573l6.358 2.37 79.721.287c68.418.247 80.647.072 86.259-1.229 20.066-4.654 37.907-22.063 42.569-41.541.724-3.025 1.684-5.928 2.134-6.45 1.112-1.293 1.054-158.815-.058-158.127-.481.297-1.179-1.364-1.551-3.691-.941-5.887-6.623-17.145-12.086-23.943-5.382-6.699-16.605-14.538-25.63-17.903L210.5.516 130 .31C61.325.133 48.692.322 44 1.594m67.516 42.065c-14.613 3.131-35.235 13.303-33.92 16.73 1.048 2.731 3.614 2.633 9.761-.373 22.669-11.086 53.694-9.355 72.72 4.057 2.524 1.779 2.747 1.758 10.829-1.041 4.539-1.571 8.484-3.089 8.767-3.372.994-.994-10.341-7.7-18.94-11.206-15.553-6.341-33.734-8.112-49.217-4.795M.476 128c0 43.725.123 61.612.274 39.75.15-21.863.15-57.638 0-79.5C.599 66.387.476 84.275.476 128M70.33 61.619c-.889 1.357-2.581 3.01-3.76 3.674-2.097 1.181-2.051 1.298 2.143 5.434C71.071 73.051 73 74.454 73 73.845c0-.61 1.463-2.512 3.25-4.227L79.5 66.5l-3.777-3.674-3.777-3.674-1.616 2.467m108.17 3.255c-9.146 2.64-19.029 6.669-29.315 11.948l-9.315 4.782-7.095-2.38c-12.987-4.355-28.64-2.925-41.876 3.827-5.238 2.673-15.121 12.061-18.908 17.963-5.696 8.876-8.279 18.106-8.303 29.666l-.021 10.18-6.385 7.32c-8.16 9.356-16.542 21.842-19.202 28.607-2.03 5.159-2.706 12.419-1.459 15.668 1.89 4.925 14.408 6.104 27.141 2.555 15.67-4.367 37.622-15.675 59.589-30.694 5.967-4.081 10.659-6.834 10.426-6.118-.619 1.9-16.328 15.271-23.018 19.593-3.158 2.04-5.745 4.008-5.75 4.374-.005.365 3.254.964 7.241 1.33 29.788 2.733 57.75-22.504 57.75-52.123 0-4.277.457-5.027 8.198-13.468 20.87-22.758 30.421-41.273 25.772-49.959-2.695-5.037-13.956-6.394-25.47-3.071M59.443 77.125C45.9 95.353 39.956 121.869 44.445 144.024c1.889 9.326 2.455 10.756 3.552 8.981.41-.664.064-3.3-.77-5.856-2.277-6.984-2.242-29.732.06-38.149 2.505-9.163 8.793-21.402 14.818-28.843 4.613-5.696 4.981-6.5 3.606-7.875s-2.015-.881-6.268 4.843m106.907-2.14c-6.349 1.664-22.35 7.741-22.35 8.488 0 .158 2.467 2.149 5.482 4.425 6.717 5.072 12.946 13.146 16.068 20.828 1.291 3.176 2.795 5.774 3.342 5.774 1.69 0 12.03-13.667 15.231-20.132 5.43-10.968 4.907-17.204-1.671-19.953-4.375-1.828-7.361-1.722-16.102.57M204 89.736c0 .625-2.514 4.877-5.587 9.45l-5.587 8.314 1.17 5.302c2.835 12.841.663 33.138-4.889 45.689-1.936 4.376-1.936 4.457-.029 6.881 2.247 2.857 11.974 7.981 13.059 6.879 1.368-1.39 7.825-17.32 9.551-23.563 2.195-7.94 2.451-31.647.429-39.688C209.738 99.543 204 85.924 204 89.736M59.553 152.373c-9.662 13.541-12.265 23.898-7.118 28.325 4.56 3.922 16.403 2.847 30.162-2.737l5.236-2.125-7.358-6.99c-5.77-5.481-8.181-8.699-11.167-14.908-2.094-4.356-4.123-7.923-4.507-7.929-.385-.005-2.746 2.859-5.248 6.364m119.912 12.97c-1.344 2.665-3.45 4.781-6.209 6.24l-4.175 2.208 2.861 1.185c3.435 1.423 7.071 5.127 8.658 8.822 1.086 2.529 1.211 2.574 1.943.702 1.563-3.995 4.696-7.576 8.287-9.473 2.019-1.066 3.037-1.958 2.264-1.983-2.32-.073-7.982-4.926-9.848-8.442l-1.746-3.291-2.035 4.032m17.035 11.314c-6.129 3.221-13.5 12.24-13.5 16.519 0 1.678 10.404-8.572 14.134-13.926 1.629-2.338 2.828-4.232 2.664-4.21-.164.022-1.648.75-3.298 1.617m-28.189 9.17c-20.277 18.455-53.899 22.875-80.055 10.524-6.673-3.151-7.456-3.31-9.92-2.019l-2.676 1.402 4.92 3.599c5.68 4.155 18.454 9.897 27.6 12.406 9.921 2.721 31.898 2.436 42.32-.55 9.562-2.739 22.673-8.934 27.445-12.967l3.445-2.911-1.693-4.406c-.931-2.423-2.706-5.619-3.945-7.103l-2.252-2.698-5.189 4.723" fill="#1976D2" fill-rule="evenodd"/><path fill-opacity=".332" d="M51.5.698C33.541 3.079 15.852 15.153 7.836 30.5.108 45.294.5 40.034.5 129v79.5l2.645 7.233c3.854 10.539 7.315 15.932 15.09 23.517 7.945 7.75 17.724 12.999 28.45 15.271 10.159 2.153 152.548 2.13 162.815-.025 16.78-3.523 32.588-15.618 39.86-30.496 7.202-14.734 7.057-12.846 7.378-96.25.162-42.152-.094-74.75-.586-74.75-.48 0-1.138-2.237-1.462-4.97-.77-6.5-5.504-17.646-10.227-24.081-5.089-6.932-14.6-14.673-22.359-18.196C209.664.103 207.692-.014 127.662.15 87.423.232 53.15.479 51.5.698m65.561 41.33c-12.635 1.751-26.545 7.111-36.917 14.226l-4.356 2.988 2.464 2.465 2.465 2.465 5.927-2.992c11.89-6.003 19.458-7.685 34.356-7.636 12.09.039 14.335.333 21.5 2.812 4.4 1.523 10.84 4.322 14.31 6.221l6.31 3.451 8.925-2.764c4.909-1.52 8.932-3.107 8.94-3.526.019-.951-8.745-6.585-15.745-10.123-12.234-6.184-33.801-9.58-48.179-7.587M.475 128.5c0 41.25.123 58.271.275 37.824.151-20.447.151-54.197 0-75C.599 70.521.475 87.25.475 128.5M70 60.272c-.83 1.786-3.007 3.98-4.874 4.913l-3.375 1.684 3.494 1.46c2.174.908 4.013 2.633 4.869 4.565.756 1.708 1.602 3.089 1.88 3.067.278-.021 1.414-1.481 2.523-3.244 1.11-1.764 3.281-3.812 4.824-4.552l2.807-1.345-3.324-1.66c-1.828-.913-3.999-3.113-4.824-4.888-.825-1.776-1.725-3.229-2-3.229-.275 0-1.175 1.453-2 3.229m113.5 2.848c-8.935 2.052-20.631 6.481-31.677 11.994l-11.677 5.828-5.823-2.029c-3.203-1.116-9.648-2.276-14.323-2.577-16.004-1.033-29.403 4.094-41.093 15.723-10.919 10.861-16.256 24.453-15.709 40.002l.302 8.561-6.313 6.939c-7.21 7.925-16.173 20.893-19.252 27.853-1.152 2.605-2.34 7.108-2.639 10.007-.499 4.834-.292 5.552 2.503 8.674l3.046 3.405 9.328-.094c7.823-.079 10.778-.614 18.327-3.313 14.041-5.021 34.671-15.668 50-25.806l14-9.258-6.37 5.971c-3.504 3.284-9.901 8.339-14.217 11.235-4.315 2.896-7.861 5.546-7.879 5.89-.057 1.056 5.853 1.875 13.539 1.875 9.192 0 20.826-3.531 28.311-8.593 14.838-10.034 23.297-24.759 24.551-42.734l.476-6.828 8.795-9.216c20.12-21.085 30.308-42.35 23.794-49.661-4.097-4.597-10.977-5.921-20-3.848M59.574 76.006c-15.288 20.767-20.585 46.038-14.931 71.233.832 3.706 1.88 6.966 2.33 7.244 1.814 1.121 2-3.216.441-10.227-2.442-10.973-1.57-29.076 1.916-39.777 2.948-9.05 8.085-18.08 14.553-25.578l4.382-5.08-2.039-2.04-2.04-2.039-4.612 6.264M167 75.13c-1.925.523-7.659 2.57-12.742 4.55l-9.243 3.599 6.528 5.981c7.525 6.896 11.951 12.945 15.051 20.574l2.188 5.383 4.215-5.333C183.101 97.102 187 89.355 187 82.062c0-5.614-3.383-8.092-10.885-7.972-3.088.05-7.19.518-9.115 1.04m31.362 23.211-6.089 9.341 1.343 6.409c2.723 12.998 1.089 29.13-4.316 42.633-2.493 6.226-2.506 6.392-.671 8.465 2.314 2.614 10.314 7.811 12.025 7.811 3.812 0 11.812-21.679 13.297-36.034.963-9.31.115-22.293-1.96-29.999-1.762-6.542-6.138-17.967-6.882-17.967-.362 0-3.399 4.203-6.747 9.341M63.309 148.266c-5.547 6.168-11.768 17.334-12.84 23.047-2.228 11.878 8.26 14.728 27.964 7.598l8.7-3.148-5.585-4.978c-6.531-5.821-11.108-12.153-14.092-19.495l-2.137-5.258-2.01 2.234m117.429 13.294c-.838 4.188-4.416 8.394-8.819 10.365l-3.739 1.674 4.16 2.213c4.408 2.345 8.613 7.523 8.731 10.75.045 1.239.722.495 1.876-2.062 2.132-4.722 5.236-7.758 10.053-9.831 2.816-1.212 3.067-1.522 1.285-1.587-3.153-.117-9.257-5.824-11.252-10.521l-1.696-3.994-.599 2.993m14.762 15.007c-4.822 2.499-9.208 7.326-11.503 12.662-1.175 2.731-1.87 5.231-1.546 5.556.814.813 8.802-7.081 14.201-14.035 4.541-5.848 4.231-6.973-1.152-4.183m-27.97 9.48c-7.351 6.079-16.658 11.029-26.53 14.111-6.328 1.976-9.609 2.339-21 2.323-14.496-.021-17.141-.568-31.325-6.472-7.035-2.929-8.028-3.106-10.866-1.93l-3.124 1.294 3.402 2.84c1.871 1.563 7.454 4.843 12.407 7.29 27.384 13.53 60.56 11.437 85.326-5.381 5.652-3.838 5.993-4.288 5.237-6.922-1.248-4.353-5.949-12.319-7.167-12.144-.215.031-3.076 2.277-6.36 4.991" fill="#1976D2" fill-rule="evenodd"/><path fill-opacity=".154" d="M233.549 14.92c-.378.612-1.176.811-1.773.442-.675-.417-.795-.202-.318.571.422.683 1.583 1.028 2.58.767 1.211-.316 1.644-.034 1.304.85-.279.728-1.145 1.079-1.925.78-.779-.299-1.417-.083-1.417.48s.454 1.175 1.01 1.36c.555.185.138.881-.927 1.546-1.759 1.098-1.902.96-1.557-1.503.209-1.492.139-2.15-.156-1.463-.295.688-1.391 1.25-2.434 1.25-1.207 0-2.134.941-2.546 2.583-.478 1.902-1.142 2.454-2.521 2.093-1.029-.269-1.62-.081-1.311.417.308.499 1.208.907 2.001.907.793 0 1.441.445 1.441.988 0 .544-.98.881-2.178.75-1.591-.174-2.345.436-2.796 2.262-.52 2.102-.725 2.222-1.291.75-.37-.963-1.249-1.714-1.954-1.671-1.003.062-1.01.188-.031.583 1.742.703 1.569 3.338-.219 3.338-.832 0-1.241.593-.943 1.369.308.802-.294 1.582-1.457 1.886-1.496.392-1.854.117-1.462-1.118.448-1.413.372-1.431-.559-.137-1.623 2.256-1.344 2.997 1.14 3.03 2.051.028 2.091.123.448 1.079-1.293.753-2.212.71-3.25-.152-1.593-1.322-1.853-.611-1.46 3.997.19 2.233.05 2.323-1.552 1-1.289-1.064-1.869-1.134-2.163-.26-.221.656-1.048.946-1.838.643-.789-.303-1.435-.053-1.435.556 0 .609.505 1.107 1.122 1.107.811 0 .799.39-.041 1.403-.894 1.077-.865 1.523.127 1.921.846.339.708.545-.399.597-.93.043-1.969-.371-2.309-.921-.34-.55-1.154-.993-1.809-.985-.875.012-.888.211-.052.75.826.533.757 1.09-.25 2.024-.764.71-1.403.935-1.419.5-.017-.434-.495.008-1.062.982-.567.974-1.404 1.54-1.86 1.259-.456-.282-1.612.721-2.568 2.229-.957 1.507-1.141 2.179-.41 1.491 1.896-1.782 2.93-1.547 2.93.667 0 1.054.563 2.143 1.25 2.421.688.277-1.225.604-4.25.725l-5.5.221 6.654.68c7.472.764 11.438 2.854 12.978 6.838 3.615 9.357-7.255 29.788-26.65 50.089-6.678 6.99-7.483 8.249-7.488 11.72-.034 22.686-15.695 44.064-37.333 50.959-8.528 2.717-20.578 3.577-27.616 1.97l-3.456-.789 2.408-1.95c1.968-1.593 3.665-4.801 2.54-4.801-1.572 0-17.365 9.858-16.797 10.484.418.46.214.523-.453.14-.666-.382-3.366.383-6 1.702-2.633 1.319-7.153 3.172-10.045 4.119-3.187 1.043-4.997 2.143-4.595 2.792.39.632.191.781-.484.363-.631-.389-3.738-.002-6.905.862-3.167.863-8.233 1.96-11.258 2.437-3.136.494-4.21.899-2.5.941 2.731.066 4.952-.285 14-2.217 2.743-.586 2.701-.518-.5.792-1.925.788-4.637 1.467-6.027 1.509-1.391.042-3.603.829-4.916 1.749-1.314.92-2.063 1.145-1.664.5.465-.752-.014-1.173-1.334-1.173-2.359 0-2.454.314-1.004 3.316.958 1.983.925 2.023-.36.434-.779-.962-1.698-1.75-2.044-1.75-1.524 0-4.426 3.422-3.952 4.658.371.967.007 1.166-1.252.683-1.128-.433-1.537-.296-1.122.376.897 1.452-1.953 3.64-3.812 2.926-.832-.319-1.513-.182-1.513.305s.563 1.112 1.25 1.39c1 .403 1 .52 0 .583-.687.043-1.25.467-1.25.94 0 .474 1.166.639 2.592.366 1.607-.307 2.145-.771 1.416-1.222-.848-.524-.761-.886.31-1.297 1.869-.717 2.704.07 2.006 1.89-.296.771-1.39 1.402-2.431 1.402-1.13 0-1.899.705-1.908 1.75-.01 1.101-.288 1.333-.75.626-.696-1.064-5.235-.145-5.235 1.06 0 .276.788.206 1.75-.155 1.541-.577 1.584-.451.359 1.055-1.233 1.515-1.176 1.642.5 1.111 1.802-.57 1.805-.543.068.568-1.483.949-2.075.823-3.169-.673-1.483-2.029-3.2-1.263-1.886.841 1.189 1.905 1.359 3.923.274 3.253-.511-.316-.699-.946-.418-1.4.281-.455-.216-1.105-1.104-1.446-1.226-.47-1.493-.152-1.108 1.32.378 1.446.112 1.789-1.043 1.345-.973-.373-1.298-.186-.873.503.388.628-.291 1.395-1.585 1.792-3.361 1.031-4.918 2.548-3.933 3.833 1.631 2.126 2.235 4.775.907 3.977-.981-.589-.981-.425.002.79.683.844 1.009 1.767.724 2.052-1.119 1.119 7.755 7.826 14.702 11.111C46.615 255.674 43.921 255.5 129 255.5c72.408 0 77.894-.121 83.5-1.84 20.161-6.181 34.389-20.249 41.122-40.66 1.672-5.071 1.84-11.238 2.151-79 .329-72.016-.07-84.816-2.899-92.93-.588-1.687-1.47-2.82-1.96-2.517-.49.303-.627-.138-.304-.979 1.454-3.788-15.12-25.794-17.061-22.654M236 17.313c0 .172 1.463 1.635 3.25 3.25l3.25 2.937-2.937-3.25c-2.738-3.029-3.563-3.71-3.563-2.937m-8.573 4.452c-1.398.957-2.602 4.235-1.556 4.235.444 0 1.321-1.125 1.947-2.5 1.238-2.717 1.212-2.832-.391-1.735m-16.968 20.302c-.363.586-.445 1.281-.183 1.543s.743-.218 1.069-1.067c.676-1.762.1-2.072-.886-.476m-10.345 9.862c-.859.532-.962 1.047-.29 1.462.571.353 1.339.154 1.707-.441.918-1.486.188-2.012-1.417-1.021m-20.702 5.589c2.339 2.14 2.634 2.84 1.5 3.558-.777.491-1.989.9-2.694.909-1.923.023-8.6 2.966-8.028 3.539.274.273 2.481-.238 4.904-1.136 2.423-.899 5.756-1.623 7.406-1.61 1.65.014 2.237-.184 1.305-.439-.932-.255-1.482-1.017-1.222-1.694.259-.676-1.003-2.255-2.806-3.51l-3.277-2.281 2.912 2.664M195 55.393c0 .216.698.661 1.552.989.89.341 1.291.173.941-.393-.587-.951-2.493-1.406-2.493-.596M191.5 59c-.34.55-.141 1 .441 1S193 59.55 193 59s-.198-1-.441-1-.719.45-1.059 1m-24.888 7.181c.497.804.129.935-1.198.43-1.452-.553-1.635-.449-.76.433.773.78 1.715.849 2.859.209 1.578-.884 1.582-1.003.045-1.593-1.109-.425-1.424-.252-.946.521m-8.862 4.391c-3.877 2.103-3.438 2.829.5.827 3.77-1.918 4.437-2.414 3.167-2.359-.505.022-2.155.711-3.667 1.532M173 76c3.025.371 4.315.747 2.867.837-1.799.111-2.835.877-3.268 2.413l-.634 2.25-2.116-2.5c-2.04-2.411-2.09-2.42-1.415-.25.482 1.547.289 2.255-.617 2.265-1.017.012-.995.22.1.913 1.216.769 1.198 1.351-.127 4.087-.85 1.754-1.82 2.745-2.157 2.201-.336-.544.08-1.563.925-2.264 1.229-1.02 1.277-1.44.239-2.098-2.06-1.307-2.787-.994-2.078.896.594 1.586.482 1.609-1.195.25-1.728-1.4-1.775-1.357-.709.645.915 1.716.832 2.403-.412 3.436-1.28 1.061-1.717 1.036-2.464-.145-.747-1.18-.911-1.126-.924.308-.022 2.58-3.164 1.71-7.468-2.069l-3.687-3.237 6.32-2.833c3.476-1.558 6.995-3.083 7.82-3.39.955-.355 1.038-.586.228-.636-1.121-.07-14.03 5.389-14.972 6.331-.521.522 14.102 14.964 14.958 14.773.393-.087.475.465.182 1.228-.293.763.018 1.727.69 2.142.834.515.965.339.414-.553-.524-.848-.418-1.067.302-.622.611.377.829 1.42.484 2.318-.415 1.084-.237 1.391.533.916.78-.482.943-.156.5 1-.483 1.256-.304 1.497.666.898.833-.515 1.084-.43.676.229-.356.577.045 2.707.892 4.734l1.54 3.685 2.939-3.698c1.616-2.034 2.651-4.164 2.299-4.734-.352-.569-.192-.758.355-.42 1.36.84 4.744-3.954 8.87-12.563 3.664-7.646 4.139-10.555 2.294-14.059-1.757-3.339-2.767-3.665-10.85-3.506l-7.5.148L173 76m-8.187.683c.721.289 1.584.253 1.916-.079.332-.332-.258-.568-1.312-.525-1.165.048-1.402.285-.604.604m-23.765 2.266c-.799.506-1.881.654-2.405.331-.524-.324-.63-.068-.237.568.511.827 1.27.861 2.655.12 1.066-.571 1.939-1.248 1.939-1.503 0-.643-.281-.573-1.952.484m44.147 3.551c.02 1.65.244 2.204.498 1.231.254-.973.237-2.323-.037-3-.274-.677-.481.119-.461 1.769M169 81.378c0 .207.787.995 1.75 1.75 1.586 1.243 1.621 1.208.378-.378-1.307-1.666-2.128-2.195-2.128-1.372M161 87c0 .55.477 1 1.059 1s.781-.45.441-1-.816-1-1.059-1-.441.45-.441 1m41.192 4.25c-.666 1.787-2.145 4.375-3.288 5.75-1.143 1.375-1.744 1.868-1.336 1.095.493-.934.349-1.162-.43-.68-.644.398-.913 1.139-.599 1.648.314.509-.626 2.495-2.089 4.414-2.574 3.375-2.625 3.696-1.556 9.838 2.572 14.769.841 32.467-4.314 44.108l-2.623 5.923 2.67 2.787c2.69 2.808 10.198 6.867 12.702 6.867 1.36 0 7.43-11.499 9.501-18 1.827-5.735 4.17-20.855 4.166-26.881C214.986 114.801 208.06 88 204.628 88c-.674 0-1.771 1.463-2.436 3.25m-44.787 1.608c2.038 2.292 2.595 2.588 2.595 1.383 0-.418-1.012-1.382-2.25-2.142-2.242-1.377-2.243-1.375-.345.759M159 91.393c0 .216.698.661 1.552.989.89.341 1.291.173.941-.393-.587-.951-2.493-1.406-2.493-.596m-112.921 43.19c.048 1.165.285 1.402.604.605.289-.722.253-1.585-.079-1.917-.332-.332-.568.258-.525 1.312m1 7c.048 1.165.285 1.402.604.605.289-.722.253-1.585-.079-1.917-.332-.332-.568.258-.525 1.312m16.001 7.667c-1.237 1.986-1.225 2.104.101 1.009.827-.683 1.823-.922 2.214-.531s.414-.063.051-1.008c-.819-2.134-.689-2.163-2.366.53M67.5 155c.853 1.65 1.776 3 2.051 3 .275 0-.198-1.35-1.051-3s-1.776-3-2.051-3c-.275 0 .198 1.35 1.051 3m-18.957-1.069c-.317.512-.193 1.167.274 1.456.467.289.85-.13.85-.931 0-1.686-.316-1.833-1.124-.525m-2.671 5.819c-1.243 1.586-1.208 1.621.378.378 1.666-1.307 2.195-2.128 1.372-2.128-.207 0-.995.787-1.75 1.75m134.829.994c-.906 4.532-6.187 10.041-10.823 11.289-4.41 1.187-4.393 2.414.045 3.302 4.086.817 8.903 5.41 10.46 9.974l1.3 3.81 1.736-4.547c1.902-4.98 5.574-8.154 11.36-9.821l3.721-1.073-4.399-1.318c-5.687-1.705-7.895-3.746-10.586-9.784l-2.195-4.925-.619 3.093m-105.796 5.123c1.204 1.69 2.625 3.342 3.158 3.672.533.329.668 1.088.299 1.685-.369.597-.243.82.281.496.524-.323 1.606-.175 2.405.331 1.142.722.987.922-.727.934-1.198.008-2.853.69-3.678 1.515-.825.825-2.067 1.5-2.76 1.5-.71 0-.304-.89.928-2.039 2.346-2.185 2.852-3.961 1.13-3.961-.582 0-.781.45-.441 1s.153 1-.415 1c-.569 0-1.732 1.35-2.585 3s-2.327 3.007-3.276 3.015c-1.417.013-1.469.177-.293.921 1.057.669.452 1.089-2.313 1.608-3.961.743-12.266.142-13.376-.969-.363-.362-.955-2.778-1.317-5.367l-.658-4.708-.133 4.059c-.225 6.813 1.367 7.95 11.04 7.884 7.606-.051 18.258-2.52 22.479-5.208.747-.476-1.152-2.973-5.391-7.087-3.599-3.494-5.56-4.97-4.357-3.281m50.61-1.891c-.332.536-4.269 3.231-8.749 5.988-4.48 2.757-8.249 5.719-8.376 6.581-.126.863.297 1.393.94 1.178.644-.214 1.17-.877 1.17-1.473 0-.596.41-1.458.91-1.917.529-.484.609-.309.191.417-1.331 2.314.581 1.277 6.857-3.717 6.097-4.851 9.354-8.033 8.223-8.033-.309 0-.834.439-1.166.976m-43.153 9.8c.369.597.213 1.368-.346 1.714-.559.345-1.016.151-1.016-.431s-.825-.272-1.833.691c-2.403 2.294-2.131 2.482 1.671 1.157 3.304-1.152 3.96-2.296 2.007-3.502-.689-.426-.884-.276-.483.371m114.138 1.877c-4.98 2.612-11.387 9.485-13.153 14.11l-1.664 4.356-1.221-3.551c-1.543-4.489-4.162-8.516-5.997-9.22-.81-.311-3.679 1.434-6.692 4.071-6.427 5.625-17.71 11.603-27.773 14.714-6.09 1.883-9.755 2.317-19.5 2.309-13.666-.01-20.903-1.601-31.919-7.019-6.365-3.13-7.225-3.31-10.75-2.254-2.107.631-3.831 1.535-3.831 2.009 0 1.275 13.21 9.592 20.324 12.797 22.642 10.2 53.227 8.763 75.218-3.536 10.804-6.041 19.535-13.534 27.473-23.577 5.469-6.919 5.335-8.277-.515-5.209M73 178.031c0 .533.675.969 1.5.969s1.5-.177 1.5-.393c0-.216-.675-.652-1.5-.969-.825-.316-1.5-.139-1.5.393m-38.921 4.552c.048 1.165.285 1.402.604.605.289-.722.253-1.585-.079-1.917-.332-.332-.568.258-.525 1.312m-.049 8.111c-.016.657.983 2.254 2.22 3.549s1.75 1.658 1.14.806c-.611-.852-1.609-2.449-2.22-3.549-.61-1.1-1.123-1.463-1.14-.806m8.783 7.989c.721.289 1.584.253 1.916-.079.332-.332-.258-.568-1.312-.525-1.165.048-1.402.285-.604.604M44 204.927c0 .509-.788 1.132-1.75 1.384-1.09.284-.724.501.969.573 2.031.087 2.573-.263 2.143-1.384-.645-1.681-1.362-1.983-1.362-.573m-26 25.644c0 .315.564 1.136 1.253 1.825 1.004 1.004 1.65.865 3.25-.701 1.992-1.95 1.992-1.951-.253-.789-1.468.759-2.25.804-2.25.129 0-.569-.45-1.035-1-1.035s-1 .257-1 .571M20.5 240c.995 1.1 2.035 2 2.31 2 .275 0-.315-.9-1.31-2-.995-1.1-2.035-2-2.31-2-.275 0 .315.9 1.31 2" fill="#1976D2" fill-rule="evenodd"/></svg>