<svg width="32" height="32" viewBox="0 0 32 32" fill="none" xmlns="http://www.w3.org/2000/svg">
<path fill-rule="evenodd" clip-rule="evenodd" d="M5.4 1C4.6268 1 4 1.6268 4 2.4V29.6C4 30.3732 4.6268 31 5.4 31H26.6C27.3732 31 28 30.3732 28 29.6V9H22C20.8954 9 20 8.10457 20 7V1H5.4Z" fill="#38AFFF"/>
<path d="M21.4 9H28L20 1V7.6C20 8.3732 20.6268 9 21.4 9Z" fill="#74C7FF"/>
<path d="M20.0002 15.9999H16.8002V23.1999C16.8002 23.6799 16.4802 23.9999 16.0002 23.9999C15.5202 23.9999 15.2002 23.6799 15.2002 23.1999V15.9999H12.0002C11.5202 15.9999 11.2002 15.6799 11.2002 15.1999C11.2002 14.7199 11.5202 14.3999 12.0002 14.3999H20.0002C20.4802 14.3999 20.8002 14.7199 20.8002 15.1999C20.8002 15.6799 20.4802 15.9999 20.0002 15.9999Z" fill="white"/>
</svg>
