<svg width="32" height="32" viewBox="0 0 32 32" fill="none" xmlns="http://www.w3.org/2000/svg">
<g clip-path="url(#clip0_590_3539)">
<g clip-path="url(#clip1_590_3539)">
<path fill-rule="evenodd" clip-rule="evenodd" d="M5.4 1C4.6268 1 4 1.6268 4 2.4V29.6C4 30.3732 4.6268 31 5.4 31H26.6C27.3732 31 28 30.3732 28 29.6V9H22C20.8954 9 20 8.10457 20 7V1H5.4Z" fill="#1B87F4"/>
<path d="M21.4 9H28L20 1V7.6C20 8.3732 20.6268 9 21.4 9Z" fill="#5FABF7"/>
<path d="M15.9998 18.24L17.5998 22.72C17.9198 23.36 18.8798 23.36 19.0398 22.72L21.4398 16.32C21.5998 15.84 21.4398 15.52 20.9598 15.36C20.4798 15.2 20.1598 15.36 19.9998 15.68L18.3998 20.16L16.7998 15.68C16.4798 15.04 15.5198 15.04 15.1998 15.68L13.5998 20.16L11.9998 15.68C11.8398 15.36 11.3598 15.04 10.8798 15.2C10.3998 15.36 10.2398 15.84 10.3998 16.32L12.7998 22.72C13.1198 23.36 14.0798 23.36 14.2398 22.72L15.9998 18.24Z" fill="white"/>
</g>
</g>
<defs>
<clipPath id="clip0_590_3539">
<rect width="32" height="32" fill="white"/>
</clipPath>
<clipPath id="clip1_590_3539">
<rect width="32" height="32" fill="white"/>
</clipPath>
</defs>
</svg>
