<svg width="32" height="32" viewBox="0 0 32 32" fill="none" xmlns="http://www.w3.org/2000/svg">
<path fill-rule="evenodd" clip-rule="evenodd" d="M5.4 1C4.6268 1 4 1.6268 4 2.4V29.6C4 30.3732 4.6268 31 5.4 31H26.6C27.3732 31 28 30.3732 28 29.6V9H22C20.8954 9 20 8.10457 20 7V1H5.4Z" fill="#E0E0E0"/>
<path d="M21.4 9H28L20 1V7.6C20 8.3732 20.6268 9 21.4 9Z" fill="#CACACA"/>
<path d="M13.2551 14.7861C13.2475 14.9224 13.3599 15.0327 13.4963 15.0327H14.3208C14.4589 15.0327 14.5687 14.9201 14.5872 14.7833C14.6762 14.1272 15.1265 13.6489 15.9292 13.6489C16.6148 13.6489 17.2432 13.9917 17.2432 14.8169C17.2432 15.4517 16.8687 15.7437 16.2783 16.188C15.6055 16.6768 15.0723 17.248 15.1104 18.1748L15.1133 18.3916C15.1152 18.5283 15.2266 18.6382 15.3633 18.6382H16.1743C16.3124 18.6382 16.4243 18.5263 16.4243 18.3882V18.2827C16.4243 17.5654 16.6973 17.356 17.4336 16.7974C18.043 16.334 18.6778 15.8198 18.6778 14.7407C18.6778 13.23 17.4019 12.5 16.0054 12.5C14.7383 12.5 13.3496 13.0906 13.2551 14.7861ZM14.812 20.5488C14.812 21.082 15.2373 21.4756 15.8213 21.4756C16.4307 21.4756 16.8496 21.082 16.8496 20.5488C16.8496 19.9966 16.4307 19.6094 15.8213 19.6094C15.2373 19.6094 14.812 19.9966 14.812 20.5488Z" fill="white"/>
</svg>
