<svg width="32" height="32" viewBox="0 0 32 32" fill="none" xmlns="http://www.w3.org/2000/svg">
<g clip-path="url(#clip0_590_3602)">
<rect width="32" height="32" fill="white"/>
<path fill-rule="evenodd" clip-rule="evenodd" d="M5.4 1C4.6268 1 4 1.6268 4 2.4V29.6C4 30.3732 4.6268 31 5.4 31H26.6C27.3732 31 28 30.3732 28 29.6V9H22C20.8954 9 20 8.10457 20 7V1H5.4Z" fill="#06C1A2"/>
<path d="M21.4 9H28L20 1V7.6C20 8.3732 20.6268 9 21.4 9Z" fill="#51D4BE"/>
<path d="M17.1198 19.0399L19.9998 16.1599C20.3198 15.8399 20.3198 15.3599 19.9998 15.0399C19.5198 14.8799 19.0398 14.8799 18.7198 15.1999L15.8398 17.9199L13.1198 15.1999C12.7998 14.8799 12.3198 14.8799 11.9998 15.1999C11.6798 15.5199 11.6798 15.9999 11.9998 16.3199L14.8798 19.1999L11.9998 21.9199C11.6798 22.2399 11.6798 22.7199 11.9998 23.0399C12.3198 23.3599 12.7998 23.3599 13.1198 23.0399L15.9998 20.1599L18.8798 23.0399C19.1998 23.3599 19.6798 23.3599 19.9998 23.0399C20.3198 22.7199 20.3198 22.2399 19.9998 21.9199L17.1198 19.0399Z" fill="white"/>
</g>
<defs>
<clipPath id="clip0_590_3602">
<rect width="32" height="32" fill="white"/>
</clipPath>
</defs>
</svg>
