<svg width="32" height="32" viewBox="0 0 32 32" fill="none" xmlns="http://www.w3.org/2000/svg">
<path fill-rule="evenodd" clip-rule="evenodd" d="M5.4 1C4.6268 1 4 1.6268 4 2.4V29.6C4 30.3732 4.6268 31 5.4 31H26.6C27.3732 31 28 30.3732 28 29.6V9H22C20.8954 9 20 8.10457 20 7V1H5.4Z" fill="#FF693A"/>
<path d="M21.4 9H28L20 1V7.6C20 8.3732 20.6268 9 21.4 9Z" fill="#FF9777"/>
<path d="M13.5436 13.6001C12.7704 13.6001 12.1436 14.2269 12.1436 15.0001V23.3001C12.1436 23.6867 12.457 24.0001 12.8436 24.0001C13.2302 24.0001 13.5436 23.6867 13.5436 23.3001V21.3001H16.0061C18.1324 21.3001 19.8561 19.5764 19.8561 17.4501C19.8561 15.3238 18.1324 13.6001 16.0061 13.6001H13.5436ZM16.0061 19.9001H13.5436V15.0001H16.0061C17.3592 15.0001 18.4561 16.097 18.4561 17.4501C18.4561 18.8032 17.3592 19.9001 16.0061 19.9001Z" fill="white" stroke="white" stroke-width="0.24" stroke-linecap="round" stroke-linejoin="round"/>
</svg>
