<svg width="32" height="32" viewBox="0 0 32 32" fill="none" xmlns="http://www.w3.org/2000/svg">
<path fill-rule="evenodd" clip-rule="evenodd" d="M5.4 1C4.6268 1 4 1.6268 4 2.4V29.6C4 30.3732 4.6268 31 5.4 31H26.6C27.3732 31 28 30.3732 28 29.6V9H22C20.8954 9 20 8.10457 20 7V1H5.4Z" fill="#FAA239"/>
<path d="M21.4 9H28L20 1V7.6C20 8.3732 20.6268 9 21.4 9Z" fill="#FCBE74"/>
<path d="M21.5996 18.6C21.5996 21.6781 19.0778 24.2 15.9996 24.2C12.9214 24.2 10.3996 21.6781 10.3996 18.6C10.3996 15.5218 12.9214 13 15.9996 13C19.0778 13 21.5996 15.5218 21.5996 18.6Z" stroke="white" stroke-width="1.6"/>
<path d="M18.5594 18.9199L18.3994 19.0799L15.5194 20.9999C15.1994 21.1599 14.7194 21.1599 14.5594 20.8399C14.3994 20.8399 14.3994 20.6799 14.3994 20.5199V16.5199C14.3994 16.1999 14.7194 15.8799 15.0394 15.8799C15.1994 15.8799 15.3594 16.0399 15.3594 16.0399L18.3994 18.1199C18.7194 18.2799 18.7194 18.5999 18.5594 18.9199Z" fill="white"/>
</svg>
