<svg width="32" height="32" viewBox="0 0 32 32" fill="none" xmlns="http://www.w3.org/2000/svg">
<path fill-rule="evenodd" clip-rule="evenodd" d="M5.4 1C4.6268 1 4 1.6268 4 2.4V29.6C4 30.3732 4.6268 31 5.4 31H26.6C27.3732 31 28 30.3732 28 29.6V9H22C20.8954 9 20 8.10457 20 7V1H5.4Z" fill="#38AFFF"/>
<path d="M21.4 9H28L20 1V7.6C20 8.3732 20.6268 9 21.4 9Z" fill="#74C7FF"/>
<path d="M10.75 17.5C10.3358 17.5 10 17.1642 10 16.75C10 16.3358 10.3358 16 10.75 16H21.25C21.6642 16 22 16.3358 22 16.75C22 17.1642 21.6642 17.5 21.25 17.5H10.75ZM10 19.75C10 19.3358 10.3358 19 10.75 19H21.25C21.6642 19 22 19.3358 22 19.75C22 20.1642 21.6642 20.5 21.25 20.5H10.75C10.3358 20.5 10 20.1642 10 19.75ZM10.75 23.5C10.3358 23.5 10 23.1642 10 22.75C10 22.3358 10.3358 22 10.75 22H16.75C17.1642 22 17.5 22.3358 17.5 22.75C17.5 23.1642 17.1642 23.5 16.75 23.5H10.75Z" fill="white"/>
</svg>
