<svg width="32" height="32" viewBox="0 0 32 32" fill="none" xmlns="http://www.w3.org/2000/svg">
<path fill-rule="evenodd" clip-rule="evenodd" d="M5.4 1C4.6268 1 4 1.6268 4 2.4V29.6C4 30.3732 4.6268 31 5.4 31H26.6C27.3732 31 28 30.3732 28 29.6V9H22C20.8954 9 20 8.10457 20 7V1H5.4Z" fill="#B3B3B3"/>
<path d="M21.4 9H28L20 1V7.6C20 8.3732 20.6268 9 21.4 9Z" fill="#CACACA"/>
<path fill-rule="evenodd" clip-rule="evenodd" d="M11.2498 4V5.5H9.74976V7H11.2498V8.5H9.74976V10H11.2498V11.5H13.4998V10H11.9998V8.5H13.4998V7H11.9998V5.5H13.4998V4H11.9998L11.9998 2.5H9.74976L9.74976 4H11.2498ZM9.74976 13.75C9.74976 12.9216 10.4213 12.25 11.2498 12.25H12.7498C13.5782 12.25 14.2498 12.9216 14.2498 13.75V15.1577L14.8492 17.5553C15.0029 18.1703 14.7535 18.8156 14.226 19.1672L12.8318 20.0967C12.328 20.4326 11.6716 20.4326 11.1677 20.0967L9.77351 19.1672C9.24606 18.8156 8.9966 18.1703 9.15035 17.5553L9.74976 15.1577V13.75ZM11.2497 13.75V15.1577C11.2497 15.2803 11.2346 15.4025 11.2049 15.5215L10.6055 17.9191L11.9997 18.8486L13.3939 17.9191L12.7945 15.5215C12.7647 15.4025 12.7497 15.2803 12.7497 15.1577V13.75H11.2497Z" fill="white"/>
</svg>
