<svg width="32" height="32" viewBox="0 0 32 32" fill="none" xmlns="http://www.w3.org/2000/svg">
<path fill-rule="evenodd" clip-rule="evenodd" d="M5.4 1C4.6268 1 4 1.6268 4 2.4V29.6C4 30.3732 4.6268 31 5.4 31H26.6C27.3732 31 28 30.3732 28 29.6V9H22C20.8954 9 20 8.10457 20 7V1H5.4Z" fill="#9C73F3"/>
<path d="M21.4 9H28L20 1V7.6C20 8.3732 20.6268 9 21.4 9Z" fill="#BA9DF7"/>
<path d="M14.5 16.2143C14.5 16.806 13.9963 17.2857 13.375 17.2857C12.7537 17.2857 12.25 16.806 12.25 16.2143C12.25 15.6226 12.7537 15.1429 13.375 15.1429C13.9963 15.1429 14.5 15.6226 14.5 16.2143Z" fill="white"/>
<path d="M11.5 13C10.6716 13 10 13.6396 10 14.4286V21.5714C10 22.3604 10.6716 23 11.5 23H20.5C21.3284 23 22 22.3604 22 21.5714V14.4286C22 13.6396 21.3284 13 20.5 13H11.5ZM20.5 13.7143C20.9142 13.7143 21.25 14.0341 21.25 14.4286V19.0714L18.4177 17.6806C18.2733 17.6118 18.099 17.6388 17.9848 17.7475L15.2022 20.3976L13.208 19.1314C13.0593 19.037 12.8612 19.0557 12.7348 19.176L10.75 20.8572V14.4286C10.75 14.0341 11.0858 13.7143 11.5 13.7143H20.5Z" fill="white"/>
</svg>
