<svg width="32" height="32" viewBox="0 0 32 32" fill="none" xmlns="http://www.w3.org/2000/svg">
<g clip-path="url(#clip0_590_3564)">
<g clip-path="url(#clip1_590_3564)">
<path fill-rule="evenodd" clip-rule="evenodd" d="M5.4 1C4.6268 1 4 1.6268 4 2.4V29.6C4 30.3732 4.6268 31 5.4 31H26.6C27.3732 31 28 30.3732 28 29.6V9H22C20.8954 9 20 8.10457 20 7V1H5.4Z" fill="#EA426B"/>
<path d="M21.4 9H28L20 1V7.6C20 8.3732 20.6268 9 21.4 9Z" fill="#F07B97"/>
<path d="M20.0004 21.12C20.4804 21.12 21.6004 21.12 21.6004 20C21.6004 19.52 21.4404 18.88 20.0004 18.88C19.3604 18.88 18.7204 19.04 18.0804 19.04C17.2804 18.4 16.4804 17.6 16.0004 16.64C16.4804 14.88 16.4804 13.76 16.1604 13.12C16.0004 12.96 15.6804 12.8 15.3604 12.8C14.8804 12.8 14.5604 12.96 14.4004 13.28C13.9204 14.24 14.7204 16 15.0404 16.8C14.5604 18.08 14.0804 19.36 13.4404 20.64C10.4004 21.92 10.4004 22.72 10.4004 23.04C10.4004 23.36 10.5604 23.68 10.8804 23.84C11.0404 24 11.2004 24 11.3604 24C12.1604 24 12.9604 23.2 14.0804 21.44C15.3604 20.96 16.4804 20.48 17.7604 20.32C18.4004 20.8 19.2004 21.12 20.0004 21.12ZM15.5204 13.76C15.6804 14.24 15.6804 14.88 15.5204 15.36C15.2004 14.88 15.2004 14.4 15.2004 13.76H15.5204ZM11.3604 23.04C11.6804 22.5601 12.0004 22.4 12.4804 22.08C12.1604 22.56 11.8404 22.88 11.3604 23.04ZM15.6804 18.24C16.0004 18.72 16.4804 19.36 16.9604 19.84H16.8004C16.1604 20 15.3604 20.16 14.7204 20.48C15.0404 19.68 15.3604 19.04 15.6804 18.24ZM19.8404 19.84C20.4804 19.84 20.6404 20 20.6404 20.16C20.4804 20.16 20.1604 20.32 20.0004 20.16C19.6804 20.16 19.3604 20 19.0404 19.84H19.8404Z" fill="white"/>
</g>
</g>
<defs>
<clipPath id="clip0_590_3564">
<rect width="32" height="32" fill="white"/>
</clipPath>
<clipPath id="clip1_590_3564">
<rect width="32" height="32" fill="white"/>
</clipPath>
</defs>
</svg>
