<svg width="32" height="32" viewBox="0 0 32 32" fill="none" xmlns="http://www.w3.org/2000/svg">
<path fill-rule="evenodd" clip-rule="evenodd" d="M5.4 1C4.6268 1 4 1.6268 4 2.4V29.6C4 30.3732 4.6268 31 5.4 31H26.6C27.3732 31 28 30.3732 28 29.6V9H22C20.8954 9 20 8.10457 20 7V1H5.4Z" fill="#4CC5C3"/>
<path d="M21.4 9H28L20 1V7.6C20 8.3732 20.6268 9 21.4 9Z" fill="#82D6D5"/>
<path d="M19.6796 12.8001L14.2396 14.2401C13.5996 14.5601 13.1196 15.0401 13.1196 15.6801V20.8C13.1196 20.8 12.6396 20.4801 11.8396 20.64C10.7196 20.8 9.59961 21.76 9.59961 22.72C9.59961 23.68 10.7196 24.1601 11.8396 24.0001C13.1196 23.8401 14.0796 23.0401 14.0796 22.0801V17.1201C14.0796 16.8001 14.7196 16.4801 14.7196 16.4801L19.3596 15.2001C19.3596 15.2001 19.8396 15.0401 19.8396 15.5201V19.5201C19.8396 19.5201 19.3596 19.2001 18.5596 19.3601C17.2796 19.5201 16.3196 20.3201 16.3196 21.2801C16.3196 22.2401 17.4396 22.88 18.5596 22.72C19.6796 22.5601 20.7996 21.76 20.7996 20.8V13.6001C20.7996 12.9601 20.1596 12.6401 19.6796 12.8001Z" fill="white"/>
</svg>
