<svg width="32" height="32" viewBox="0 0 32 32" fill="none" xmlns="http://www.w3.org/2000/svg">
<path d="M30.2664 28.4443H1.73341C0.971366 28.4443 0.355469 27.8979 0.355469 27.2218V7.25988C0.355469 6.58379 0.971366 6.03735 1.73341 6.03735H30.2664C31.0285 6.03735 31.6444 6.58379 31.6444 7.25988V27.2218C31.6444 27.8948 31.025 28.4443 30.2664 28.4443Z" fill="#85C6FF"/>
<path d="M16.0174 11.9452H0.355469V4.93189C0.355469 4.17079 0.972067 3.55566 1.73495 3.55566H12.4538C13.0634 3.55566 13.5998 3.95186 13.774 4.5357L16.0174 11.9452Z" fill="#4093E6"/>
<path d="M30.2664 28.4444H1.73341C0.971366 28.4444 0.355469 27.8299 0.355469 27.0695V9.29995C0.355469 8.53958 0.971366 7.92505 1.73341 7.92505H30.2664C31.0285 7.92505 31.6444 8.53958 31.6444 9.29995V27.0695C31.6444 27.8264 31.025 28.4444 30.2664 28.4444Z" fill="#51AEFF"/>
</svg>
