<svg width="21" height="21" viewBox="0 0 21 21" fill="none" xmlns="http://www.w3.org/2000/svg">
<circle cx="10.4484" cy="10.6892" r="10" transform="rotate(-1 10.4484 10.6892)" fill="#F6F6F6"/>
<mask id="mask0_917_9484" style="mask-type:alpha" maskUnits="userSpaceOnUse" x="2" y="2" width="17" height="17">
<rect x="2.31055" y="2.83008" width="16" height="16" transform="rotate(-1 2.31055 2.83008)" fill="#D9D9D9"/>
</mask>
<g mask="url(#mask0_917_9484)">
<path d="M10.4637 11.5386L7.77848 14.3193C7.65841 14.4436 7.52056 14.5044 7.36493 14.5015C7.2093 14.4987 7.06932 14.4372 6.94498 14.3171C6.82065 14.1971 6.75707 14.0565 6.75426 13.8954C6.75145 13.7343 6.81008 13.5916 6.93015 13.4673L9.59899 10.7036L6.81837 8.0184C6.69403 7.89833 6.63324 7.7577 6.63598 7.59652C6.63872 7.43533 6.70013 7.29257 6.8202 7.16824C6.94027 7.0439 7.08085 6.98032 7.24194 6.97751C7.40302 6.9747 7.54573 7.03333 7.67007 7.1534L10.434 9.83891L13.1192 7.05829C13.2393 6.93395 13.3799 6.87037 13.541 6.86756C13.7021 6.86475 13.8448 6.92338 13.9691 7.04345C14.0934 7.16352 14.157 7.3041 14.1598 7.46519C14.1626 7.62627 14.104 7.76898 13.9839 7.89332L11.2987 10.6739L14.0794 13.3592C14.2037 13.4792 14.2672 13.617 14.2699 13.7726C14.2726 13.9281 14.214 14.068 14.0939 14.1924C13.9738 14.3167 13.8332 14.3803 13.6722 14.3831C13.5111 14.3859 13.3684 14.3273 13.244 14.2072L10.4637 11.5386Z" fill="#5C5551"/>
</g>
</svg>
