<svg width="16" height="16" viewBox="0 0 16 16" fill="none" xmlns="http://www.w3.org/2000/svg">
<path d="M3.22367 7.48592C3.21626 6.92583 3.31913 6.36977 3.52641 5.84948C3.73369 5.32919 4.04131 4.85486 4.43172 4.45358C4.82213 4.0523 5.28767 3.73191 5.80177 3.51073C6.31587 3.28954 6.86846 3.17188 7.42799 3.16446C7.98752 3.15705 8.54303 3.26002 9.0628 3.4675C9.58257 3.67499 10.0564 3.98292 10.4573 4.37371C10.8582 4.76451 11.1783 5.23052 11.3992 5.74513C11.6202 6.25975 11.7377 6.81289 11.7452 7.37297C11.7601 8.50412 11.3256 9.59488 10.5371 10.4053C9.74864 11.2157 8.67085 11.6795 7.54083 11.6944C6.41081 11.7094 5.32113 11.2744 4.5115 10.4852C3.70188 9.69593 3.23863 8.61706 3.22367 7.48592ZM13.8251 12.9743L11.7471 10.8933C12.1959 10.3321 12.5299 9.68784 12.7298 8.99739C12.9297 8.30693 12.9918 7.5838 12.9124 6.86933C12.833 6.15486 12.6138 5.46304 12.2672 4.83343C11.9206 4.20382 11.4534 3.64875 10.8924 3.19995C9.75966 2.29353 8.31364 1.87458 6.87235 2.03521C5.43107 2.19585 4.11252 2.92292 3.20669 4.05654C2.36238 5.10872 1.93626 6.43609 2.01018 7.78363C2.08411 9.13118 2.65288 10.4039 3.60722 11.3572C4.56155 12.3105 5.83414 12.8772 7.1805 12.9484C8.52686 13.0196 9.85202 12.5902 10.9014 11.7429L12.9783 13.8219C13.0887 13.9329 13.2381 13.9962 13.3945 13.9984C13.5509 14.0006 13.7019 13.9414 13.8153 13.8336C13.9288 13.7258 13.9956 13.5779 14.0015 13.4214C14.0075 13.265 13.952 13.1124 13.8471 12.9963L13.8251 12.9743Z" fill="#1F1814"/>
</svg>
