<svg width="16" height="16" viewBox="0 0 16 16" fill="none" xmlns="http://www.w3.org/2000/svg">
<path d="M7.98751 14.0062C4.88822 14.0062 2.36719 11.4852 2.36719 8.38592C2.36719 6.309 3.50494 4.40918 5.33768 3.42841C5.63017 3.27143 5.99376 3.38145 6.1494 3.67394C6.30638 3.96642 6.19636 4.33002 5.90387 4.48565C4.46156 5.25712 3.56665 6.75175 3.56665 8.38592C3.56665 10.8224 5.54967 12.8054 7.98617 12.8054C10.4227 12.8054 12.4057 10.8224 12.4057 8.38592C12.4057 6.74102 11.5014 5.24236 10.0443 4.47358C9.75183 4.31928 9.63913 3.95569 9.79342 3.6632C9.94771 3.37072 10.3113 3.25801 10.6038 3.41231C12.4567 4.38905 13.6065 6.29424 13.6065 8.38592C13.6065 11.4852 11.0855 14.0062 7.98751 14.0062Z" fill="#1F1814"/>
<path d="M7.98751 8.7039C7.65611 8.7039 7.38778 8.43556 7.38778 8.10417V2.60596C7.38778 2.27456 7.65611 2.00623 7.98751 2.00623C8.31891 2.00623 8.58724 2.27456 8.58724 2.60596V8.10417C8.58724 8.43556 8.31891 8.7039 7.98751 8.7039Z" fill="#1F1814"/>
</svg>
