<svg width="16" height="16" viewBox="0 0 16 16" fill="none" xmlns="http://www.w3.org/2000/svg">
<path fill-rule="evenodd" clip-rule="evenodd" d="M8.79215 2.83385C8.79409 2.812 8.79508 2.78989 8.79508 2.76756C8.79508 2.34365 8.43874 2 7.99916 2C7.55959 2 7.20324 2.34365 7.20324 2.76756C7.20324 2.78991 7.20424 2.81204 7.20618 2.83391C5.06687 3.19598 3.44151 4.99639 3.44151 7.16281V10.6229L2.57707 11.457L2.55023 11.4848C2.27171 11.7949 2.49706 12.2906 2.9351 12.2906H6.22674C6.22671 12.7439 6.41341 13.1787 6.74578 13.4993C7.07815 13.8199 7.52896 14 7.99904 14C8.46911 14 8.91995 13.82 9.25237 13.4995C9.41696 13.3407 9.54753 13.1523 9.63662 12.945C9.72571 12.7376 9.77157 12.5153 9.77159 12.2909L13.0632 12.2906L13.1022 12.2891C13.5271 12.2598 13.7309 11.7556 13.4213 11.457L12.5568 10.6231V7.16281C12.5568 4.99625 10.9312 3.19578 8.79215 2.83385ZM7.44649 12.7932C7.31357 12.6573 7.23954 12.4775 7.23956 12.2906H8.75877C8.75877 12.4849 8.67874 12.6712 8.53629 12.8086C8.39384 12.946 8.20063 13.0232 7.99917 13.0232L7.9546 13.0219C7.76118 13.011 7.57942 12.9291 7.44649 12.7932ZM4.45432 7.16281C4.45432 5.27481 6.0414 3.74428 7.99917 3.74428C9.95693 3.74428 11.544 5.27481 11.544 7.16281V10.8255L11.546 10.8685C11.5565 10.9827 11.6083 11.0897 11.6924 11.1708L11.8405 11.3139H4.15757L4.30594 11.1708C4.40092 11.0792 4.45429 10.955 4.45432 10.8255V7.16281Z" fill="#1F1814"/>
</svg>
