<svg width="16" height="16" viewBox="0 0 16 16" fill="none" xmlns="http://www.w3.org/2000/svg">
<path d="M7.95466 5.66663C7.34675 5.66663 6.87494 5.81179 6.54003 6.10301C6.20512 6.39482 6.03705 6.7429 6.03705 7.14849C6.03705 7.49218 6.14507 7.75561 6.35988 7.93836C6.57407 8.12347 6.94306 8.27858 7.4674 8.40238C8.19602 8.56626 8.61581 8.68175 8.72847 8.74895C8.84114 8.81616 8.89775 8.91346 8.89775 9.04256C8.89775 9.17697 8.82789 9.27818 8.68737 9.34538C8.54684 9.41259 8.35802 9.44671 8.1203 9.44671C7.71421 9.44671 7.43646 9.3697 7.28604 9.21642C7.20061 9.13094 7.14577 8.98576 7.12039 8.78119H5.8968C5.8968 9.23276 6.07003 9.60394 6.4167 9.89576C6.76337 10.187 7.29923 10.3333 8.026 10.3333C8.73852 10.3333 9.26517 10.1952 9.60627 9.91994C9.94675 9.64404 10.1165 9.2888 10.1165 8.85373C10.1165 8.5236 9.99813 8.24865 9.76103 8.02817C9.52084 7.81064 9.16109 7.64785 8.68132 7.53997C7.96012 7.38964 7.53969 7.28349 7.42145 7.22218C7.3026 7.16323 7.24372 7.06753 7.24372 6.93548C7.24372 6.83055 7.30035 6.73926 7.41178 6.66145C7.52321 6.58363 7.71091 6.54515 7.97401 6.54515C8.29405 6.54515 8.51921 6.62267 8.6523 6.77889C8.72287 6.86496 8.76738 6.98095 8.78409 7.12892H9.99076C9.9369 6.59186 9.72784 6.21349 9.36445 5.99478C9.00107 5.77548 8.53162 5.66663 7.95466 5.66663ZM3.28396 5.67469C2.60796 5.67469 2.0582 5.8776 1.63477 6.28378C1.21134 6.68996 1 7.27285 1 8.03393C1 8.8457 1.23445 9.43193 1.70369 9.79213C2.17293 10.1523 2.7146 10.3333 3.3287 10.3333C4.07218 10.3333 4.65083 10.1194 5.06374 9.69196C5.32993 9.42314 5.47829 9.15805 5.5111 8.89748H4.28025C4.20844 9.02659 4.12586 9.12779 4.03239 9.2003C3.86091 9.33471 3.63679 9.4018 3.36255 9.4018C3.10317 9.4018 2.88141 9.34739 2.69756 9.23715C2.39484 9.0597 2.2337 8.75064 2.21513 8.31026H5.57518C5.58137 7.93061 5.56809 7.64026 5.53528 7.43865C5.47895 7.09378 5.35715 6.79134 5.16772 6.53018C4.95848 6.23424 4.69284 6.01641 4.37093 5.87964C4.04902 5.74228 3.68697 5.6741 3.28396 5.67469ZM12.924 5.6862C12.243 5.6862 11.7095 5.89687 11.322 6.31602C10.9344 6.73517 10.7416 7.32082 10.7416 8.07423C10.7416 8.74215 10.9172 9.28547 11.2676 9.70462C11.6173 10.1238 12.1636 10.3333 12.9059 10.3333C13.6487 10.3333 14.2095 10.0831 14.5877 9.58027C14.8248 9.26841 14.9582 8.93849 14.9867 8.58891H13.7559C13.7305 8.82 13.6565 9.00807 13.5382 9.1531C13.4187 9.29812 13.219 9.36956 12.9361 9.36956C12.538 9.36956 12.2654 9.18699 12.1212 8.82149C12.0419 8.62577 12.0039 8.36847 12.0039 8.04659C12.0039 7.70938 12.0419 7.43882 12.1212 7.23485C12.2716 6.85048 12.5505 6.65799 12.9579 6.65799C13.2432 6.65799 13.454 6.74652 13.5902 6.92397C13.6831 7.05602 13.7414 7.20337 13.7643 7.36726H15C14.9319 6.74119 14.7148 6.30396 14.3459 6.05695C13.9775 5.80994 13.5034 5.6862 12.924 5.6862ZM3.28638 6.62115C3.57114 6.62115 3.80843 6.69919 4.00095 6.85718C4.19348 7.01577 4.30028 7.24611 4.32257 7.55148H2.24536C2.28931 7.26557 2.39674 7.03958 2.56697 6.87215C2.73721 6.70473 2.97747 6.62115 3.28638 6.62115Z" fill="#ADADAD"/>
</svg>
