<svg width="16" height="16" viewBox="0 0 16 16" fill="none" xmlns="http://www.w3.org/2000/svg">
<path d="M7.95466 5.66669C7.34675 5.66669 6.87494 5.81185 6.54003 6.10307C6.20512 6.39489 6.03705 6.74296 6.03705 7.14855C6.03705 7.49224 6.14507 7.75567 6.35988 7.93842C6.57407 8.12353 6.94306 8.27864 7.4674 8.40244C8.19602 8.56633 8.61581 8.68181 8.72847 8.74901C8.84114 8.81622 8.89775 8.91352 8.89775 9.04262C8.89775 9.17703 8.82789 9.27824 8.68737 9.34544C8.54684 9.41265 8.35802 9.44677 8.1203 9.44677C7.71421 9.44677 7.43646 9.36976 7.28604 9.21649C7.20061 9.131 7.14577 8.98582 7.12039 8.78125H5.8968C5.8968 9.23283 6.07003 9.604 6.4167 9.89582C6.76337 10.187 7.29923 10.3334 8.026 10.3334C8.73852 10.3334 9.26517 10.1953 9.60627 9.92C9.94675 9.6441 10.1165 9.28886 10.1165 8.85379C10.1165 8.52366 9.99813 8.24871 9.76103 8.02823C9.52084 7.8107 9.16109 7.64791 8.68132 7.54003C7.96012 7.3897 7.53969 7.28355 7.42145 7.22224C7.3026 7.16329 7.24372 7.06759 7.24372 6.93554C7.24372 6.83061 7.30035 6.73932 7.41178 6.66151C7.52321 6.58369 7.71091 6.54521 7.97401 6.54521C8.29405 6.54521 8.51921 6.62273 8.6523 6.77895C8.72287 6.86502 8.76738 6.98101 8.78409 7.12898H9.99076C9.9369 6.59192 9.72784 6.21355 9.36445 5.99484C9.00107 5.77554 8.53162 5.66669 7.95466 5.66669ZM3.28396 5.67475C2.60796 5.67475 2.0582 5.87766 1.63477 6.28384C1.21134 6.69002 1 7.27291 1 8.03399C1 8.84576 1.23445 9.43199 1.70369 9.79219C2.17293 10.1524 2.7146 10.3334 3.3287 10.3334C4.07218 10.3334 4.65083 10.1194 5.06374 9.69202C5.32993 9.4232 5.47829 9.15811 5.5111 8.89754H4.28025C4.20844 9.02665 4.12586 9.12785 4.03239 9.20037C3.86091 9.33478 3.63679 9.40186 3.36255 9.40186C3.10317 9.40186 2.88141 9.34745 2.69756 9.23721C2.39484 9.05976 2.2337 8.7507 2.21513 8.31033H5.57518C5.58137 7.93067 5.56809 7.64032 5.53528 7.43871C5.47895 7.09384 5.35715 6.7914 5.16772 6.53024C4.95848 6.2343 4.69284 6.01647 4.37093 5.8797C4.04902 5.74234 3.68697 5.67416 3.28396 5.67475ZM12.924 5.68626C12.243 5.68626 11.7095 5.89693 11.322 6.31608C10.9344 6.73523 10.7416 7.32088 10.7416 8.07429C10.7416 8.74221 10.9172 9.28553 11.2676 9.70468C11.6173 10.1238 12.1636 10.3334 12.9059 10.3334C13.6487 10.3334 14.2095 10.0832 14.5877 9.58033C14.8248 9.26847 14.9582 8.93855 14.9867 8.58897H13.7559C13.7305 8.82006 13.6565 9.00814 13.5382 9.15316C13.4187 9.29818 13.219 9.36962 12.9361 9.36962C12.538 9.36962 12.2654 9.18706 12.1212 8.82155C12.0419 8.62583 12.0039 8.36853 12.0039 8.04665C12.0039 7.70945 12.0419 7.43888 12.1212 7.23491C12.2716 6.85054 12.5505 6.65805 12.9579 6.65805C13.2432 6.65805 13.454 6.74658 13.5902 6.92403C13.6831 7.05608 13.7414 7.20343 13.7643 7.36732H15C14.9319 6.74125 14.7148 6.30402 14.3459 6.05702C13.9775 5.81001 13.5034 5.68626 12.924 5.68626ZM3.28638 6.62121C3.57114 6.62121 3.80843 6.69925 4.00095 6.85725C4.19348 7.01583 4.30028 7.24617 4.32257 7.55155H2.24536C2.28931 7.26563 2.39674 7.03964 2.56697 6.87221C2.73721 6.70479 2.97747 6.62121 3.28638 6.62121Z" fill="#5C5C5C"/>
</svg>
