<svg width="225" height="113" viewBox="0 0 225 113" fill="none" xmlns="http://www.w3.org/2000/svg">
<rect x="111.454" y="109.187" width="97.7204" height="48.4379" rx="8.74215" transform="rotate(-90 111.454 109.187)" fill="white" stroke="black" stroke-width="1.67658" stroke-dasharray="4.79 4.79"/>
<path d="M200.658 49.5981L208.276 41.5514L209.296 50.2994L215.357 50.818L213.71 58.7713L221.347 66.0695L209.032 67.2719" stroke="black" stroke-width="2" stroke-linecap="round"/>
<path d="M209.63 110.659L3.84668 110.659" stroke="black" stroke-width="2.80291" stroke-linecap="round" stroke-linejoin="round"/>
<path d="M5.62778 13.5241C11.5012 10.5868 21.216 21.4374 25.2962 23.414C25.9708 23.7408 26.8391 23.9089 27.484 23.5173L27.6861 23.3946C27.7144 23.3774 27.7304 23.3455 27.7272 23.3126C27.6134 18.8042 31.9883 11.653 37.1052 11.1694C42.2221 10.6857 39.2159 12.573 39.5726 14.4529C41.5458 12.4732 48.4245 10.4474 52.8203 12.572C53.1618 12.7371 53.4517 12.9019 53.6951 13.0662L53.9857 12.6256C55.4954 10.7571 65.3994 1.66687 69.15 3.43179C72.9005 5.19671 73.3056 22.4291 69.8719 28.2514C73.0932 29.7981 77.1298 36.5009 75.5764 40.3669C83.358 39.0632 92.2407 42.365 97.6695 53.163C103.49 64.7409 97.5515 84.3857 77.0979 86.9864L77.1707 87.0236C77.2344 87.0562 77.2992 87.0834 77.367 87.1064C80.8585 88.2922 86.0275 91.1635 89.1981 92.8929L89.8635 93.2249C94.3021 93.8462 97.1046 96.4714 97.6374 99.2951C98.5115 103.928 94.4371 106.925 89.4898 107.42L12.3735 106.862C8.70621 102.451 7.60374 98.9782 9.67197 94.3414C9.78333 94.0917 9.82398 93.8177 9.81441 93.5445C9.72376 90.9568 11.5894 86.8575 13.243 83.8627C13.6791 83.0729 13.3131 82.0682 12.4599 81.775L11.7867 81.5437C3.52398 79.735 3.96851 68.073 4.17339 65.4695C4.2 65.1315 4.11456 64.7991 3.93781 64.5113C-1.67526 55.3713 5.06006 42.895 8.18426 38.5428C8.44479 38.1799 9.10803 38.0558 9.09734 37.611C9.05125 35.6962 2.00208 15.3373 5.62778 13.5241Z" fill="white"/>
<path d="M27.7326 23.365L27.4842 23.5158C26.8393 23.9074 25.9983 23.7392 25.501 23.1794C22.0496 19.2939 11.54 10.2955 6.07037 12.7266C3.18732 14.0081 6.04523 31.1916 8.28704 37.1976C8.47024 37.6884 8.40322 38.2319 8.09832 38.6621C4.93666 43.1231 -1.6328 55.4694 3.9491 64.5279C4.11951 64.8045 4.2053 65.1258 4.19166 65.4515C4.09267 67.8154 4.17106 77.9044 12.4483 80.8605" stroke="black" stroke-width="3.56199" stroke-linecap="round" stroke-linejoin="round"/>
<path d="M53.9839 12.6252C55.4936 10.7567 64.5732 0.728063 68.3237 2.49299C72.0743 4.25791 74.1432 21.2305 71.3647 27.5217C74.586 29.0685 78.4801 36.4911 76.9267 40.3571C84.7083 39.0534 92.7651 43.627 96.5777 54.0474C101.038 66.2387 95.2251 84.4878 76.2173 86.9809" stroke="black" stroke-width="3.56199" stroke-linecap="round" stroke-linejoin="round"/>
<path d="M66.7772 68.9085C64.2471 71.2816 56.9044 69.6823 55.3206 63.1938" stroke="black" stroke-width="3.56199" stroke-linecap="round"/>
<ellipse cx="8.60035" cy="8.55541" rx="8.60035" ry="8.55541" transform="matrix(-0.883226 0.468947 0.524053 0.851686 84.202 43.7786)" fill="black"/>
<path d="M27.7254 23.3113C27.6116 18.803 31.9865 11.6518 37.1034 11.1681C42.2203 10.6845 39.2141 12.5718 39.5708 14.4517C41.544 12.472 48.4227 10.4462 52.8185 12.5708C57.2143 14.6955 53.0538 16.7736 51.3408 18.2484C53.248 18.2922 56.6147 21.3647 57.1834 25.4178C57.7521 29.471 49.9739 26.4494 45.7187 25.4178C46.5825 26.7296 48.3533 31.8522 45.7187 33.2332C43.0841 34.6142 37.1034 31.7781 35.7291 30.2474" stroke="black" stroke-width="3.56199" stroke-linecap="round" stroke-linejoin="round"/>
<path d="M44.7571 88.65C41.7067 89.0002 34.6075 89.1584 30.6135 86.9904" stroke="black" stroke-width="3.56199" stroke-linecap="round" stroke-linejoin="round"/>
<path d="M24.9406 63.032C27.1654 63.032 31.9915 64.4011 33.4976 69.8775" stroke="black" stroke-width="3.56199" stroke-linecap="round" stroke-linejoin="round"/>
<path d="M28.5569 94.6202C30.5942 88.5088 29.0887 88.3345 29.8994 84.5512C31.0634 79.1191 24.7125 68.2607 17.1459 71.4623C12.787 73.3067 11.2383 77.481 12.2369 79.9564C12.4721 80.5395 12.5457 81.2211 12.2694 81.7859C10.7765 84.8376 9.57034 90.4475 9.80531 93.5439C9.82599 93.8165 9.78297 94.0902 9.67161 94.3398C7.60337 98.9766 8.70585 102.449 12.3731 106.86" stroke="black" stroke-width="3.56199" stroke-linecap="round" stroke-linejoin="round"/>
<path d="M93.3371 77.167C95.6859 75.488 102.745 70 108.745 71.5001" stroke="black" stroke-width="3.56199" stroke-linecap="round" stroke-linejoin="round"/>
<path d="M30.7003 107.417C30.7003 107.417 33.6105 105.38 34.4835 101.888" stroke="black" stroke-width="3.56199" stroke-linecap="round" stroke-linejoin="round"/>
<path d="M94.6784 108.046C94.6784 108.046 94.7347 103.014 95.9409 97.8397C96.0273 97.469 96.2645 97.1517 96.5952 96.9634C104.557 92.4299 114.574 89.9893 118.358 85.6519" stroke="black" stroke-width="3.56199" stroke-linecap="round" stroke-linejoin="round"/>
<path d="M53.6348 38.657C43.6836 38.8978 36.2693 42.5337 33.0414 44.8517C32.536 45.2147 32.3804 45.8865 32.639 46.4525C37.9315 58.0335 44.7407 56.5916 49.1155 55.7583C53.3916 54.9438 56.5047 46.3767 54.9499 39.6501C54.8102 39.0457 54.2549 38.642 53.6348 38.657Z" fill="black" stroke="black" stroke-width="3.56199" stroke-linecap="round" stroke-linejoin="round"/>
<path d="M55.3199 44.8634C55.2486 42.7241 60.669 38.8729 66.2305 40.2003" stroke="black" stroke-width="3.56199" stroke-linecap="round" stroke-linejoin="round"/>
<path d="M79.0922 30.9511C69.5433 31.0904 65.625 33.1489 63.0244 35.1661C62.5102 35.5651 62.3639 36.2774 62.6688 36.8524C67.4754 45.9163 72.9994 45.8602 76.9261 44.2069C80.9318 42.5203 82.1542 38.2428 80.4292 31.946C80.2653 31.3478 79.7124 30.942 79.0922 30.9511Z" fill="black" stroke="black" stroke-width="3.56199" stroke-linecap="round" stroke-linejoin="round"/>
<rect width="50.5124" height="86.1195" rx="9.43419" transform="matrix(-4.37114e-08 -1 -1 4.37114e-08 197.229 110.84)" fill="black"/>
<rect x="-0.589637" y="-0.589637" width="47.2363" height="84.9077" rx="8.84455" transform="matrix(-4.37114e-08 -1 -1 4.37114e-08 193.653 105.68)" fill="white" stroke="black" stroke-width="1.17927"/>
<mask id="mask0_293_767" style="mask-type:alpha" maskUnits="userSpaceOnUse" x="111" y="61" width="81" height="43">
<rect x="-0.589637" y="-0.589637" width="40.4165" height="78.462" rx="6.48601" transform="matrix(-4.37114e-08 -1 -1 4.37114e-08 190.43 102.254)" fill="white" stroke="black" stroke-width="1.17927"/>
</mask>
<g mask="url(#mask0_293_767)">
<rect width="40.3428" height="77.5569" rx="7.07564" transform="matrix(-4.37114e-08 -1 -1 4.37114e-08 190.567 102.944)" fill="#FD7F16"/>
<rect width="39.4409" height="79.0113" rx="7.07564" transform="matrix(-4.37114e-08 -1 -1 4.37114e-08 191.294 100.25)" fill="white"/>
<rect x="-0.589637" y="-0.589637" width="40.2981" height="78.462" rx="6.48601" transform="matrix(-4.37114e-08 -1 -1 4.37114e-08 190.43 102.145)" stroke="black" stroke-width="1.17927"/>
</g>
<rect width="1.17927" height="9.43419" transform="matrix(-4.37114e-08 -1 -1 4.37114e-08 177.123 108.809)" fill="white"/>
<rect width="1.17927" height="9.43419" transform="matrix(-4.37114e-08 -1 -1 4.37114e-08 165.33 108.809)" fill="white"/>
<rect width="15.3306" height="4.71709" rx="2.35855" transform="matrix(-4.37114e-08 -1 -1 4.37114e-08 187.756 88.5296)" fill="black"/>
<circle cx="14.1211" cy="14.1211" r="14.1211" transform="matrix(-4.37114e-08 -1 -1 4.37114e-08 165.91 95.5171)" fill="black"/>
<path d="M157.75 74.6897L151.788 74.6897" stroke="white" stroke-width="1.49029" stroke-linecap="round" stroke-linejoin="round"/>
<path d="M151.788 88.1024L145.827 88.1024" stroke="white" stroke-width="1.49029" stroke-linecap="round" stroke-linejoin="round"/>
<path d="M151.788 74.6898C155.492 74.6898 158.495 77.6923 158.495 81.3961C158.495 83.2908 157.709 85.002 156.445 86.2216M151.788 88.1024C148.085 88.1024 145.082 85.0998 145.082 81.3961C145.082 79.587 145.798 77.9452 146.963 76.7389" stroke="white" stroke-width="1.49029" stroke-linecap="round" stroke-linejoin="round"/>
<path d="M114.837 72.2385C116.094 69.4106 109.6 70.2746 106.196 71.0602L105.497 73.6137L105.803 79.3084C108.291 78.13 113.58 75.0665 114.837 72.2385Z" fill="white"/>
<path d="M105.322 71.3126C108.438 70.5838 112.555 69.8745 113.592 72.6541C114.949 76.2911 110.894 77.6987 108.406 78.877" stroke="black" stroke-width="3.56" stroke-linecap="round"/>
<path fill-rule="evenodd" clip-rule="evenodd" d="M177.704 39.8168V41.7655C177.704 43.2091 176.05 44.0268 174.903 43.1499L164.775 35.4048C163.841 34.6904 163.868 33.2748 164.828 32.5966L174.957 25.4473C176.111 24.6324 177.704 25.458 177.704 26.8711V29.7127C181.482 30.3096 187.623 32.9527 190.775 38.3212C193.737 43.3651 193.435 50.5557 191.552 54.6389C191.356 55.0632 190.921 55.313 190.454 55.313C189.693 55.313 189.1 54.6557 189.089 53.8947C189.022 49.3486 186.721 41.9802 177.704 39.8168Z" fill="black"/>
</svg>
