<svg width="160" height="160" viewBox="0 0 160 160" fill="none" xmlns="http://www.w3.org/2000/svg">
<g clip-path="url(#clip0_311_3579)">
<path d="M32 83.9644C19.3935 96.489 13.7214 108.912 18.4142 117.157C26.384 131.16 61.2306 127.811 96.2463 109.676C131.262 91.5406 153.187 65.4878 145.217 51.4849C144.312 49.8943 143.06 48.5276 141.5 47.381" stroke="#5C5C5C"/>
<path d="M149.25 47.298C150.81 48.4446 152.062 49.8113 152.968 51.4018C155.923 56.5947 154.767 63.4446 150.358 70.9334" stroke="#5C5C5C" stroke-width="0.733333"/>
<path d="M35.3571 89.3334C28.776 95.8717 24.0847 102.382 21.7713 108.285" stroke="#5C5C5C" stroke-width="0.733333"/>
<path d="M51.9367 136.334C67.1126 148.966 91.7906 145.951 102.757 121.743C111.044 103.449 140.926 108.236 144.512 81.9041C146.517 67.1786 137.122 45.8201 100.603 44.7344C72.1144 43.8874 71.3043 25.3904 44.1043 30.3237C16.3851 35.3512 16.1901 66.4195 36.6388 90.1022C55.425 111.86 33.0274 120.595 51.9367 136.334Z" fill="#F6F6F6"/>
<path d="M80.9357 109.203L50.6424 111.645C48.9451 111.781 47.4379 110.565 47.2133 108.877L39.9084 53.9731C39.6687 52.171 40.9765 50.5314 42.7868 50.3646L46.269 50.0437" stroke="#5C5C5C" stroke-width="0.952"/>
<path d="M51.1866 40.004C50.9798 38.463 52.1025 37.0616 53.6516 36.9273L84.6568 34.2397L100.285 46.4686L107.868 95.2572C108.111 96.8242 106.97 98.2672 105.389 98.3916L62.0801 101.799C60.638 101.913 59.3587 100.88 59.1662 99.4459L51.1866 40.004Z" fill="white" stroke="#5C5C5C" stroke-width="0.951142"/>
<path d="M64.2884 87.0606C64.1336 85.8356 65.0479 84.7354 66.2805 84.6635L92.6938 83.1215C93.7828 83.058 94.7443 83.8262 94.9228 84.9023L95.4831 88.2823C95.6897 89.5281 94.7748 90.6797 93.5145 90.7602L66.9871 92.4545C65.8624 92.5263 64.8759 91.7109 64.7346 90.5929L64.2884 87.0606Z" fill="#ADADAD"/>
<path d="M61.3092 64.8386C61.1873 63.6311 62.0949 62.5562 63.3065 62.4854L89.8468 60.9361C90.8975 60.8747 91.827 61.6119 92.0065 62.649C92.2165 63.8619 91.3277 64.9888 90.0993 65.0673L63.5686 66.7618C62.4233 66.8349 61.4245 65.9804 61.3092 64.8386Z" fill="#EBEBEB"/>
<path d="M62.3752 73.096C62.2534 71.8893 63.1605 70.8213 64.3711 70.7495L74.372 70.156C75.4273 70.0933 76.3612 70.8333 76.5415 71.875C76.7513 73.0863 75.8687 74.2137 74.6424 74.301L64.6494 75.0119C63.4987 75.0938 62.4911 74.2437 62.3752 73.096Z" fill="#EBEBEB"/>
<path d="M66.9084 48.7289C66.3279 48.7807 65.9069 49.3047 65.9814 49.8827L66.6684 55.2118C66.7391 55.761 67.2327 56.1551 67.784 56.1026L74.4398 55.4686C75.0337 55.412 75.4545 54.8629 75.3546 54.2747L74.4598 49.0043C74.3701 48.4763 73.8898 48.1059 73.3564 48.1535L66.9084 48.7289Z" fill="#ADADAD" stroke="#5C5C5C" stroke-width="0.986667"/>
<circle cx="64.2667" cy="48.538" r="4.85776" stroke="#5C5C5C" stroke-width="0.951142"/>
<path d="M86.2543 45.4639L84.6667 34.7999L100.267 46.9333L88.4273 47.2821C87.3469 47.314 86.4135 46.5329 86.2543 45.4639Z" fill="#EBEBEB"/>
<mask id="path-13-inside-1_311_3579" fill="white">
<path fill-rule="evenodd" clip-rule="evenodd" d="M125.843 82.2875C124.18 92.1099 115.631 99.5903 105.336 99.5903C93.8481 99.5903 84.5357 90.2778 84.5357 78.7903C84.5357 70.453 89.4409 63.2614 96.5228 59.9441C87.5507 62.8667 81.0667 71.2996 81.0667 81.247C81.0667 93.6182 91.0955 103.647 103.467 103.647C115.489 103.647 125.299 94.1757 125.843 82.2875Z"/>
</mask>
<path fill-rule="evenodd" clip-rule="evenodd" d="M125.843 82.2875C124.18 92.1099 115.631 99.5903 105.336 99.5903C93.8481 99.5903 84.5357 90.2778 84.5357 78.7903C84.5357 70.453 89.4409 63.2614 96.5228 59.9441C87.5507 62.8667 81.0667 71.2996 81.0667 81.247C81.0667 93.6182 91.0955 103.647 103.467 103.647C115.489 103.647 125.299 94.1757 125.843 82.2875Z" fill="#ADADAD"/>
<path d="M125.843 82.2875L126.793 82.331L124.905 82.1288L125.843 82.2875ZM96.5228 59.9441L96.9262 60.8054L96.2282 59.0397L96.5228 59.9441ZM124.905 82.1288C123.318 91.5013 115.16 98.6391 105.336 98.6391V100.541C116.103 100.541 125.042 92.7185 126.781 82.4463L124.905 82.1288ZM105.336 98.6391C94.3734 98.6391 85.4868 89.7525 85.4868 78.7903H83.5845C83.5845 90.8031 93.3228 100.541 105.336 100.541V98.6391ZM85.4868 78.7903C85.4868 70.8357 90.166 63.9721 96.9262 60.8054L96.1193 59.0828C88.7157 62.5508 83.5845 70.0703 83.5845 78.7903H85.4868ZM82.0178 81.247C82.0178 71.7235 88.2252 63.6473 96.8174 60.8485L96.2282 59.0397C86.8761 62.0861 80.1155 70.8758 80.1155 81.247H82.0178ZM103.467 102.696C91.6208 102.696 82.0178 93.0929 82.0178 81.247H80.1155C80.1155 94.1435 90.5702 104.598 103.467 104.598V102.696ZM124.893 82.2441C124.372 93.6267 114.978 102.696 103.467 102.696V104.598C116 104.598 126.226 94.7247 126.793 82.331L124.893 82.2441Z" fill="#5C5C5C" mask="url(#path-13-inside-1_311_3579)"/>
<rect x="113.706" y="96.983" width="7.92" height="21.2533" rx="3.69333" transform="rotate(-38.8016 113.706 96.983)" fill="#ADADAD" stroke="#5C5C5C" stroke-width="0.986667"/>
<circle cx="105.469" cy="78.8" r="21.2578" fill="white" stroke="#5C5C5C" stroke-width="0.951142"/>
<circle cx="105.467" cy="78.7184" r="18.2667" fill="#EBEBEB"/>
<mask id="mask0_311_3579" style="mask-type:alpha" maskUnits="userSpaceOnUse" x="87" y="60" width="37" height="37">
<circle cx="105.467" cy="78.7184" r="18.2667" fill="#EBEBEB"/>
</mask>
<g mask="url(#mask0_311_3579)">
<path d="M113.183 97.3632C110.491 96.5545 85.5683 73.0974 73.4434 61.4699L75.8238 58.6353L120.475 99.1262L113.183 97.3632Z" fill="white" fill-opacity="0.8"/>
<path d="M129.46 97.8934L83.4683 55.9722L103.183 59.5265L138.247 92.078L129.46 97.8934Z" fill="white" fill-opacity="0.8"/>
<path d="M80.3844 71.8885L107.601 97.3632L96.8013 106.585L76.9291 82.1764L80.3844 71.8885Z" fill="white" fill-opacity="0.8"/>
</g>
<path d="M84.8 34.6714L86.271 45.4212C86.4198 46.5088 87.3697 47.3059 88.4666 47.2637L100.4 46.8047" stroke="#5C5C5C" stroke-width="0.951142"/>
<path d="M92.4805 30.7312L92.1333 24.8047" stroke="#5C5C5C" stroke-width="0.5"/>
<path d="M102.126 38.2569L108.267 37.338" stroke="#5C5C5C" stroke-width="0.5"/>
<path d="M98.1763 33.3888L103.6 27.8713" stroke="#5C5C5C" stroke-width="0.5"/>
<path d="M145.217 51.4851C153.187 65.488 131.262 91.5408 96.2463 109.676C61.2306 127.811 26.384 131.16 18.4142 117.158" stroke="#5C5C5C"/>
<circle cx="2.44358" cy="2.44358" r="3.87177" transform="matrix(0.998833 -0.0483049 0.0411211 0.999154 15.7333 99.436)" fill="#ADADAD" stroke="white" stroke-width="2.85637"/>
<path d="M103.867 130.4L105.487 134.779L109.867 136.4L105.487 138.021L103.867 142.4L102.246 138.021L97.8667 136.4L102.246 134.779L103.867 130.4Z" fill="#5C5C5C"/>
<path d="M31.6583 24.5333L32.5024 26.8143L34.7833 27.6583L32.5024 28.5024L31.6583 30.7833L30.8143 28.5024L28.5333 27.6583L30.8143 26.8143L31.6583 24.5333Z" fill="#5C5C5C"/>
<circle cx="131.151" cy="37.8623" r="5.06226" fill="#ADADAD"/>
<path d="M134.713 34.2649C135.444 34.0738 136.075 33.9756 136.57 33.9708C136.89 33.9677 137.132 34.004 137.3 34.0644C137.466 34.1237 137.536 34.1957 137.566 34.253C137.615 34.3438 137.636 34.547 137.43 34.9353C137.232 35.3082 136.869 35.7609 136.348 36.2635C135.311 37.2647 133.717 38.3977 131.812 39.4136C129.907 40.4295 128.078 41.1214 126.668 41.4251C125.961 41.5776 125.382 41.6269 124.962 41.5835C124.525 41.5382 124.368 41.407 124.32 41.3162C124.288 41.2568 124.267 41.1532 124.317 40.9697C124.368 40.7835 124.486 40.5479 124.685 40.2681C125.008 39.8156 125.51 39.2945 126.165 38.742C126.115 38.4563 126.089 38.1623 126.089 37.8622C126.089 37.8231 126.089 37.7841 126.09 37.7452C125.19 38.4528 124.47 39.1561 124.017 39.7917C123.787 40.1155 123.612 40.4397 123.526 40.7523C123.439 41.0676 123.436 41.4019 123.596 41.7023C123.841 42.1613 124.354 42.3454 124.878 42.3996C125.419 42.4556 126.092 42.3885 126.841 42.2272C128.344 41.9034 130.245 41.1788 132.198 40.1376C134.15 39.0964 135.812 37.9214 136.918 36.854C137.469 36.3222 137.9 35.8005 138.155 35.32C138.402 34.855 138.535 34.326 138.29 33.8669C138.136 33.5784 137.872 33.3974 137.577 33.2918C137.284 33.1872 136.937 33.1467 136.562 33.1504C135.841 33.1574 134.936 33.3288 133.934 33.6327C134.214 33.8176 134.475 34.0296 134.713 34.2649Z" fill="#F6F6F6"/>
</g>
<defs>
<clipPath id="clip0_311_3579">
<rect width="160" height="160" fill="white"/>
</clipPath>
</defs>
</svg>
