<svg width="16" height="13" viewBox="0 0 16 13" fill="none" xmlns="http://www.w3.org/2000/svg">
<path d="M0.999915 1.5C0.999915 1.10218 1.15795 0.720644 1.43925 0.43934C1.72056 0.158035 2.10209 0 2.49991 0H5.26392C6.22192 0 7.02391 0.56 7.57491 1.184C7.98491 1.648 8.47992 2 8.99992 2H13.4999C13.8977 2 14.2793 2.15804 14.5606 2.43934C14.8419 2.72064 14.9999 3.10218 14.9999 3.5V4.14C15.5699 4.405 15.9399 5.016 15.8559 5.686L15.2159 10.81C15.1403 11.415 14.8462 11.9716 14.3889 12.3749C13.9316 12.7783 13.3427 13.0006 12.7329 13H3.26591C2.65651 13.0001 2.06807 12.7775 1.61119 12.3743C1.15432 11.971 0.860481 11.4147 0.784915 10.81L0.144915 5.686C0.105488 5.37099 0.167024 5.05159 0.320667 4.77377C0.47431 4.49596 0.712136 4.27405 0.999915 4.14V1.5ZM1.99992 4H13.9999V3.5C13.9999 3.36739 13.9472 3.24021 13.8535 3.14645C13.7597 3.05268 13.6325 3 13.4999 3H8.99992C8.03592 3 7.28992 2.371 6.82592 1.846C6.37392 1.334 5.81991 1 5.26392 1H2.49991C2.36731 1 2.24013 1.05268 2.14636 1.14645C2.05259 1.24021 1.99992 1.36739 1.99992 1.5V4ZM1.63292 5C1.56203 5.00002 1.49196 5.01511 1.42736 5.04427C1.36275 5.07343 1.30508 5.116 1.25818 5.16915C1.21127 5.22229 1.1762 5.2848 1.1553 5.35253C1.13439 5.42026 1.12813 5.49166 1.13691 5.562L1.77691 10.686C1.82226 11.0489 1.99862 11.3827 2.27283 11.6247C2.54704 11.8667 2.9002 12.0001 3.26591 12H12.7339C13.0996 12.0001 13.4528 11.8667 13.727 11.6247C14.0012 11.3827 14.1776 11.0489 14.2229 10.686L14.8629 5.562C14.8717 5.49166 14.8654 5.42026 14.8445 5.35253C14.8236 5.2848 14.7886 5.22229 14.7417 5.16915C14.6947 5.116 14.6371 5.07343 14.5725 5.04427C14.5079 5.01511 14.4378 5.00002 14.3669 5H1.63292Z" fill="#1A130F"/>
</svg>
