<svg width="18" height="18" viewBox="0 0 18 18" fill="none" xmlns="http://www.w3.org/2000/svg">
<path d="M1.8355 8.22896C1.82439 7.38884 1.9787 6.55474 2.28961 5.77431C2.60053 4.99387 3.06197 4.28238 3.64758 3.68045C4.23319 3.07853 4.93151 2.59795 5.70266 2.26617C6.47381 1.93439 7.3027 1.7579 8.14199 1.74678C8.98128 1.73565 9.81455 1.89011 10.5942 2.20134C11.3739 2.51257 12.0846 2.97446 12.686 3.56066C13.2873 4.14685 13.7674 4.84586 14.0988 5.61778C14.4303 6.3897 14.6066 7.21942 14.6177 8.05954C14.6402 9.75626 13.9883 11.3924 12.8057 12.6081C11.623 13.8237 10.0063 14.5193 8.31124 14.5417C6.61621 14.5642 4.98169 13.9117 3.76726 12.7279C2.55282 11.544 1.85795 9.92568 1.8355 8.22896ZM17.7376 16.4616L14.6207 13.34C15.2939 12.4982 15.7948 11.5319 16.0947 10.4962C16.3946 9.46048 16.4877 8.37579 16.3686 7.30408C16.2496 6.23237 15.9207 5.19465 15.4008 4.25023C14.8809 3.30581 14.1801 2.47321 13.3386 1.8C11.6395 0.440382 9.47046 -0.188053 7.30853 0.0529012C5.1466 0.293855 3.16879 1.38447 1.81004 3.0849C0.543572 4.66316 -0.0956169 6.65421 0.0152756 8.67553C0.126168 10.6969 0.97932 12.6059 2.41082 14.0358C3.84233 15.4658 5.75122 16.3158 7.77075 16.4226C9.79029 16.5294 11.778 15.8855 13.3521 14.6144L16.4675 17.733C16.6331 17.8994 16.8571 17.9944 17.0917 17.9976C17.3263 18.0009 17.5529 17.9122 17.723 17.7505C17.8932 17.5888 17.9934 17.3669 18.0023 17.1322C18.0112 16.8976 17.928 16.6687 17.7706 16.4946L17.7376 16.4616Z" fill="#ADADAD"/>
</svg>
