<svg width="64" height="64" viewBox="0 0 64 64" fill="none" xmlns="http://www.w3.org/2000/svg">
<g clip-path="url(#clip0_2_22)">
<path d="M64 32C64 14.3269 49.6731 0 32 0C14.3269 0 0 14.3269 0 32C0 49.6731 14.3269 64 32 64C49.6731 64 64 49.6731 64 32Z" fill="#14C46F"/>
<path d="M27.583 40.5241C27.7881 40.7384 28.0316 40.9084 28.2996 41.0243C28.5676 41.1403 28.8548 41.2 29.1449 41.2C29.435 41.2 29.7222 41.1403 29.9902 41.0243C30.2582 40.9084 30.5017 40.7384 30.7068 40.5241L44.0959 26.5387C44.301 26.3244 44.4637 26.0701 44.5747 25.7902C44.6857 25.5102 44.7429 25.2102 44.7429 24.9072C44.7429 24.6042 44.6857 24.3042 44.5747 24.0243C44.4637 23.7444 44.301 23.49 44.0959 23.2758C43.8908 23.0615 43.6473 22.8916 43.3793 22.7756C43.1113 22.6597 42.8241 22.6 42.534 22.6C42.244 22.6 41.9567 22.6597 41.6887 22.7756C41.4207 22.8916 41.1772 23.0615 40.9721 23.2758L29.0495 35.5301L23.7136 29.9566C23.2994 29.5239 22.7375 29.2808 22.1517 29.2808C21.5659 29.2808 21.0041 29.5239 20.5898 29.9566C20.1756 30.3893 19.9429 30.9761 19.9429 31.588C19.9429 31.891 20 32.1911 20.111 32.471C20.222 32.7509 20.3847 33.0053 20.5898 33.2195L27.583 40.5241Z" fill="white"/>
</g>
<defs>
<clipPath id="clip0_2_22">
<rect width="64" height="64" fill="white"/>
</clipPath>
</defs>
</svg>
