<svg width="64" height="64" viewBox="0 0 64 64" fill="none" xmlns="http://www.w3.org/2000/svg">
<g clip-path="url(#clip0_2_35)">
<path d="M64 32C64 14.3269 49.6731 0 32 0C14.3269 0 0 14.3269 0 32C0 49.6731 14.3269 64 32 64C49.6731 64 64 49.6731 64 32Z" fill="url(#paint0_linear_2_35)"/>
<path d="M42.0035 39.2246C42.8371 40.0582 42.8371 41.1697 42.0035 42.0033C41.1698 42.8369 40.0584 42.8369 39.2247 42.0033L32.0001 34.7787L24.7754 42.0033C23.9418 42.8369 22.8303 42.8369 21.9967 42.0033C21.1631 41.1697 21.1631 40.0582 21.9967 39.2246L29.2214 32L21.9967 24.7753C21.1631 23.9417 21.1631 22.8302 21.9967 21.9966C22.8303 21.163 23.9418 21.163 24.7754 21.9966L32.0001 29.2213L39.2247 21.9966C40.0584 21.163 41.1698 21.163 42.0035 21.9966C42.8371 22.8302 42.8371 23.9417 42.0035 24.7753L34.7788 32L42.0035 39.2246Z" fill="white"/>
</g>
<defs>
<linearGradient id="paint0_linear_2_35" x1="32" y1="0" x2="32" y2="64" gradientUnits="userSpaceOnUse">
<stop stop-color="#FF5935"/>
<stop offset="1" stop-color="#FF5935"/>
</linearGradient>
<clipPath id="clip0_2_35">
<rect width="64" height="64" fill="white"/>
</clipPath>
</defs>
</svg>
