<svg width="64" height="64" viewBox="0 0 64 64" fill="none" xmlns="http://www.w3.org/2000/svg">
<g clip-path="url(#clip0_2_8)">
<path d="M64 32C64 14.3269 49.6731 0 32 0C14.3269 0 0 14.3269 0 32C0 49.6731 14.3269 64 32 64C49.6731 64 64 49.6731 64 32Z" fill="url(#paint0_linear_2_8)"/>
<path d="M31.0875 21.3088C31.2044 21.1839 31.3458 21.0843 31.5027 21.0163C31.6597 20.9482 31.8289 20.9131 32 20.9131C32.1711 20.9131 32.3404 20.9482 32.4973 21.0163C32.6543 21.0843 32.7956 21.1839 32.9125 21.3088L40.8438 29.7713C41.5938 30.5688 41.0263 31.875 39.9313 31.875H36.375V37.125C36.375 37.4565 36.2433 37.7745 36.0089 38.0089C35.7745 38.2433 35.4565 38.375 35.125 38.375H28.875C28.5435 38.375 28.2255 38.2433 27.9911 38.0089C27.7567 37.7745 27.625 37.4565 27.625 37.125V31.875H24.0675C22.975 31.875 22.4075 30.5688 23.155 29.77L31.0875 21.3088ZM27.625 40.875C27.625 40.5435 27.7567 40.2256 27.9911 39.9911C28.2255 39.7567 28.5435 39.625 28.875 39.625H35.125C35.4565 39.625 35.7745 39.7567 36.0089 39.9911C36.2433 40.2256 36.375 40.5435 36.375 40.875V42.125C36.375 42.4565 36.2433 42.7745 36.0089 43.0089C35.7745 43.2433 35.4565 43.375 35.125 43.375H28.875C28.5435 43.375 28.2255 43.2433 27.9911 43.0089C27.7567 42.7745 27.625 42.4565 27.625 42.125V40.875Z" fill="white"/>
</g>
<defs>
<linearGradient id="paint0_linear_2_8" x1="32" y1="0" x2="32" y2="64" gradientUnits="userSpaceOnUse">
<stop stop-color="#FF621E"/>
<stop offset="1" stop-color="#FFE860"/>
</linearGradient>
<clipPath id="clip0_2_8">
<rect width="64" height="64" fill="white"/>
</clipPath>
</defs>
</svg>
