<svg width="14" height="14" viewBox="0 0 14 14" fill="none" xmlns="http://www.w3.org/2000/svg">
<path fill-rule="evenodd" clip-rule="evenodd" d="M1.1998 2.05698C1.48781 1.76898 1.87842 1.60718 2.28572 1.60718H5.25947C5.43944 1.60718 5.61203 1.67867 5.73929 1.80593C5.86655 1.93318 5.93804 2.10578 5.93804 2.28575C5.93804 2.46572 5.86655 2.63832 5.73929 2.76557C5.61203 2.89283 5.43944 2.96432 5.25947 2.96432H2.28572C2.23836 2.96432 2.19294 2.98313 2.15945 3.01662C2.12596 3.05011 2.10715 3.09553 2.10715 3.14289V11.7143C2.10715 11.7617 2.12596 11.8071 2.15945 11.8406C2.19294 11.8741 2.23836 11.8929 2.28572 11.8929H10.8572C10.9046 11.8929 10.95 11.8741 10.9835 11.8406C11.017 11.8071 11.0358 11.7617 11.0358 11.7143V8.74061C11.0358 8.56064 11.1073 8.38804 11.2345 8.26078C11.3618 8.13353 11.5344 8.06203 11.7144 8.06203C11.8943 8.06203 12.0669 8.13353 12.1942 8.26078C12.3214 8.38804 12.3929 8.56064 12.3929 8.74061V11.7143C12.3929 12.1216 12.2311 12.5122 11.9431 12.8002C11.6551 13.0882 11.2645 13.25 10.8572 13.25H2.28572C1.87843 13.25 1.48781 13.0882 1.1998 12.8002C0.911799 12.5122 0.75 12.1216 0.75 11.7143V3.14289C0.75 2.73559 0.911799 2.34498 1.1998 2.05698Z" fill="#FDAC32"/>
<path fill-rule="evenodd" clip-rule="evenodd" d="M7.80587 0.948748C7.93312 0.821492 8.10572 0.75 8.28569 0.75H12.5714C12.7514 0.75 12.924 0.821492 13.0513 0.948748C13.1785 1.07601 13.25 1.2486 13.25 1.42857V5.71429C13.25 5.89425 13.1785 6.06685 13.0513 6.19411C12.924 6.32137 12.7514 6.39286 12.5714 6.39286C12.3915 6.39286 12.2189 6.32137 12.0916 6.19411C11.9644 6.06685 11.8929 5.89425 11.8929 5.71429V3.06675L5.33731 9.62305C5.27425 9.68611 5.19937 9.73615 5.11698 9.77028C5.03459 9.80441 4.94628 9.82197 4.85709 9.82197C4.76791 9.82197 4.6796 9.80441 4.59721 9.77028C4.51481 9.73615 4.43995 9.68612 4.37689 9.62306C4.31383 9.56 4.2638 9.48514 4.22967 9.40274C4.19554 9.32035 4.17798 9.23204 4.17798 9.14286C4.17798 9.05367 4.19554 8.96536 4.22967 8.88297C4.2638 8.80058 4.31383 8.72571 4.37689 8.66265L10.9332 2.10714H8.28569C8.10572 2.10714 7.93312 2.03565 7.80587 1.90839C7.67861 1.78114 7.60712 1.60854 7.60712 1.42857C7.60712 1.2486 7.67861 1.07601 7.80587 0.948748Z" fill="#FDAC32"/>
</svg>
