<svg width="12" height="12" viewBox="0 0 12 12" fill="none" xmlns="http://www.w3.org/2000/svg">
<path d="M11.0967 0.911379C10.7812 0.595869 10.2715 0.595869 9.95603 0.911379L6.00002 4.8593L2.04401 0.903289C1.7285 0.587779 1.21883 0.587779 0.90332 0.903289C0.587809 1.2188 0.587809 1.72847 0.90332 2.04398L4.85933 5.99999L0.90332 9.956C0.587809 10.2715 0.587809 10.7812 0.90332 11.0967C1.21883 11.4122 1.7285 11.4122 2.04401 11.0967L6.00002 7.14068L9.95603 11.0967C10.2715 11.4122 10.7812 11.4122 11.0967 11.0967C11.4122 10.7812 11.4122 10.2715 11.0967 9.956L7.14071 5.99999L11.0967 2.04398C11.4041 1.73656 11.4041 1.2188 11.0967 0.911379Z" fill="#DF636B"/>
</svg>
